<?xml version="1.0" encoding="UTF-8" standalone="no"?>
<svg
   class="revolution nym"
   version="2"
   id="NYMV3"
   x="0px"
   y="0px"
   viewBox="0 0 1366 523"
   xml:space="preserve"
   sodipodi:docname="nym-vent3.svg"
   inkscape:version="1.2.1 (9c6d41e410, 2022-07-14, custom)"
   width="1366"
   height="523"
   xmlns:inkscape="http://www.inkscape.org/namespaces/inkscape"
   xmlns:sodipodi="http://sodipodi.sourceforge.net/DTD/sodipodi-0.dtd"
   xmlns="http://www.w3.org/2000/svg"
   xmlns:svg="http://www.w3.org/2000/svg"><defs
   id="defs8653"><rect
     x="640.56335"
     y="240.6572"
     width="34.332153"
     height="55.399353"
     id="rect8713" /><rect
     x="805.47351"
     y="352.5639"
     width="62.553345"
     height="64.557312"
     id="rect8707" /><rect
     x="840.44763"
     y="291.96869"
     width="68.295532"
     height="70.287842"
     id="rect8701" /><rect
     x="1028.4896"
     y="292.31555"
     width="68.342529"
     height="65.643555"
     id="rect8695" /><rect
     x="1250.4792"
     y="243.68866"
     width="63.645996"
     height="59.76886"
     id="rect8689" /><rect
     x="479.46429"
     y="385.38757"
     width="56.342529"
     height="52.709839"
     id="rect8683" /><rect
     x="427.25659"
     y="320.95795"
     width="57.662537"
     height="50.425598"
     id="rect8677" /><rect
     x="245.36462"
     y="304.62546"
     width="59.006531"
     height="54.660248"
     id="rect8671" /><rect
     x="54.676941"
     y="263.8266"
     width="50.928436"
     height="53.73407"
     id="rect8665" /></defs><sodipodi:namedview
   id="namedview8651"
   pagecolor="#ffffff"
   bordercolor="#000000"
   borderopacity="0.25"
   inkscape:showpageshadow="2"
   inkscape:pageopacity="0.0"
   inkscape:pagecheckerboard="0"
   inkscape:deskcolor="#d1d1d1"
   showgrid="false"
   inkscape:zoom="0.74525267"
   inkscape:cx="673.59705"
   inkscape:cy="508.55235"
   inkscape:window-width="1876"
   inkscape:window-height="991"
   inkscape:window-x="20"
   inkscape:window-y="67"
   inkscape:window-maximized="1"
   inkscape:current-layer="NYMV3" />







<path
   class="leading-edge mesh"
   d="M 41.86355,65.731404 47.506478,82.802486 267.23168,63.794325 302.83409,61.67535 c 0,0 226.68863,-19.716741 372.56182,-17.480562 C 821.2691,46.430966 1052.469,58.76784 1052.469,58.76784 l 37.9396,2.642541 234.3321,21.983006 5.2109,-14.33124 L 1072.7809,39.929462 671.9872,25.182402 286.39569,41.38537 Z"
   id="path8590" />
<path
   class="leading-edge"
   d="m 26.312003,84.592864 27.292099,-2.174018 -4.64178,-14.263183 218.377728,-18.591614 -0.0984,14.23045 35.60241,-2.118975 0.0984,-14.23045 c 0,0 207.68607,-16.297861 366.6209,-16.334071 158.93502,-0.04621 383.01404,13.426561 383.01404,13.426561 l -0.098,14.23045 37.9396,2.642541 0.098,-13.050281 234.6837,23.039303 -3.6472,11.838152 29.6294,2.587497 9.6756,-26.0251 -286.8322,-28.160201 c 0,0 -214.93919,-17.963942 -404.35656,-16.329482 -93.63833,0.805908 -385.61973,18.392809 -385.61973,18.392809 L 14.456943,58.421979 Z"
   id="path8592" />
<path
   id="polygon8594"
   style="fill:#ffffff;stroke:#000000"
   d="M 295.74133,387.80123 162.41046,152.90851 63.741433,176.63012 193.05191,483.13358 Z" />
<path
   id="polygon8596"
   style="fill:#ffffff;stroke:#000000"
   d="m 360.04062,189.00313 53.90834,90.52462 -75.97272,68.82458 -66.0352,-113.7298 z" />
<path
   id="L2"
   d="m 314.32422,112.76366 47.48482,79.21079 -87.6445,46.47747 -54.16488,-99.26394 z"
   class="panel"
   sodipodi:nodetypes="ccccc" />
<path
   id="L3"
   d="m 533.82176,170.97329 -77.29235,68.79154 -45.92989,-78.33352 88.73909,-46.15832 z"
   class="panel" />
<path
   id="center-panel"
   d="m 573.97977,127.31749 46.43659,75.66196 54.07601,-34.25146 53.13122,34.77256 45.61592,-75.5754 -97.83223,-86.100525 z"
   class="panel" />
<path
   id="R3"
   d="m 814.43541,170.92066 77.77019,71.7182 47.38453,-78.34496 -90.97448,-48.09504 z"
   class="panel" />

<path
   id="polygon8608"
   style="fill:#ffffff;stroke:#000000"
   d="m 936.37863,284.1061 77.17367,72.08785 70.5712,-116.91617 -91.18109,-47.7186 z" />
<polygon
   class="logo-panel"
   fill="#ffffff"
   stroke="#000000"
   points="1056.54,546.75 1199.83,303.95 1305.99,327.73 1165.68,646.12 "
   id="polygon8610"
   transform="rotate(1,9669.0465,466.81168)" />
<g
   id="g8636"
   transform="rotate(1,9669.0465,466.81168)">
		<path
   d="m 1188.17,397.45 c -0.3,5.11 7.93,6.37 11.04,6.99 3.16,0.61 10.94,0.76 17,-1.46 l -7.15,6.64 -25.52,-5.63 -3.04,4.95 c 10.71,2.52 21,4.51 32.1,7.59 -0.59,0.51 -6.79,6.02 -6.83,6.03 l -22.28,-5.08 2.83,-5.61 -7.65,-0.36 -8.59,13.75 6.89,2.94 3.38,-5.6 c 8.09,1.66 19.85,4.33 27.46,6.62 l -6.72,5.8 -32.53,-7.27 -3.13,5.16 c 9.79,2.08 19.28,4.12 29.62,6.62 -0.8,2.17 -2.44,3.62 -4.34,4.83 -6.09,0.64 -9.29,-1.35 -16.16,-3.86 l -10.54,-5.33 -3.27,5.37 c 5.49,3.31 21.43,12.26 37.06,9.58 l -3.98,2.93 c -0.04,0.01 -3.51,-1.51 -3.76,-1.64 l -2.96,7.44 -33.31,-7.39 -3.04,4.95 c 6.54,1.56 13.08,3.19 19.65,4.65 2.75,0.61 13.2,2.59 24.43,6.05 -0.66,0.44 -7.44,4.59 -7.48,4.6 l -3.03,-1.8 c -16.74,-8.42 -28.87,-9.47 -34.48,-7.43 -2.49,0.9 -4.2,0.84 -8.02,5.67 -1.38,2.96 -1.61,5.17 -0.74,6.25 3.49,4.34 8.52,5.63 19.09,8.18 11.2,2.69 26.4,1.75 26.4,1.75 -4.48,2.72 -8.38,5.59 -12.32,6.49 -0.67,0.17 -4.02,-0.83 -4.72,-1.14 -1.62,-0.67 -3.27,-1.25 -4.93,-1.86 l -27.6,-10.22 -3.47,5.28 33.06,11.6 c -2.96,-0.04 -5.42,-0.69 -8.28,-1.07 -2.81,-0.39 -5.7,-0.72 -8.52,-1.15 -5.1,-0.78 -10.08,-1.63 -15.19,-2.34 l -5.11,-0.71 -3.27,5.37 c 0,0 36.01,5.17 41.08,5.93 5.73,0.85 10.14,1.19 16.9,2.88 -0.79,0.35 -8.6,3.73 -8.64,3.74 -0.04,0.01 -4.39,-1.71 -4.74,-1.86 l -2.75,8.62 -1.95,0.65 -9.57,-2.42 2.62,-6.8 -12.38,-4.38 c -1.26,2.48 -2.4,4.77 -3.62,7.31 -1.84,0.13 -3.45,-0.28 -5.3,-0.76 0.36,-0.74 0.53,-1.64 1.11,-2.24 0.03,-0.05 2.78,-1.87 2.84,-1.91 -1.79,-0.41 -4.02,-0.42 -5.81,-0.79 l 2.5,-4.41 c 0,0 -13.37,-1.92 -13.49,-1.85 -2.71,3.86 -5.07,7.76 -7.51,11.79 7.3,1.78 14.65,3.64 21.89,5.57 3.89,1.04 7.79,2.17 11.72,3.1 2.85,0.68 5.62,1.37 8.43,2.1 2.77,0.74 5.56,1.52 8.31,2.36 3.86,1.14 7.12,1.71 11.25,3.47 -1.64,0.51 -3.04,1.18 -4.74,1.39 -2.99,0.35 -7.91,-0.31 -11.11,-0.5 -1.78,-0.36 -18.02,-4.62 -18.68,-5 -3.46,-2 -7.87,-4.02 -11.69,-5.06 -11.66,-3.02 -14.2,-1.44 -14.72,-1.56 -1.85,-0.44 -5.83,-1.33 -6.68,-1.76 l 5.36,-7.68 4.13,-6.01 2.39,-3.65 4.43,-4.51 -1.07,-0.54 3.72,-6.24 2.6,-2.47 0.22,-0.98 -0.01,-1.61 0.99,-2.46 2.39,-3.13 6.4,-6.75 -1.3,-0.65 3.16,-4.62 7.25,-8.48 -1.62,-1.08 3.13,-5.16 1.2,-1.28 9.24,-15.05 7.62,-11.83 3.05,-3.87 0.88,-1.71 0.44,-1.96 1.53,-3.01 3.59,-4.94 3.59,-4.41 -0.43,-0.2 2.3,-3.98 1.2,-1.28 0.74,-1.5 2.37,-2.58 -0.87,-0.45 3.61,-5.49 10.95,-13.65 2.71,-3.22 -2.61,5.16 7.66,1.98 -11.65,3.82 -2.84,4.52 25.09,5.95 -5.11,5.27 c -4.74,-4.02 -8.57,-5.96 -11.66,-6.5 -4.18,-0.71 -6.73,-1.38 -12.71,2.28 -3.09,3.21 -3.98,4.88 -5.38,9.21 z"
   id="path8612" />
		<path
   d="m 1201.89,398.88 c -4.46,-0.85 -6.55,-2.24 -6.08,-4.02 0.91,-3.45 5.71,-4.69 9.67,-3.08 4.03,1.63 7.87,3.5 6.88,5.44 -0.99,1.94 -6.28,2.46 -10.47,1.66 z"
   id="path8614" />
		<path
   d="m 1163.81,476.85 c -7.39,-0.94 -12.59,-3.54 -11,-6.3 2.09,-3.59 8.25,-2.95 15.33,-0.67 7.52,2.41 13.24,5.08 12.02,6.39 -2.54,2.85 -7.79,1.68 -16.35,0.58 z"
   id="path8616" />
		<path
   d="m 1109.46,519.91 -1.98,4.29 -1.1,2.69 14,5.46 c 0.24,-0.48 2.56,-5.08 2.61,-5.16 0.03,-0.05 2.8,-1.56 3.04,-1.7 l -1.71,-0.88 1.82,-3.05 c 4.21,-0.62 5.9,0.36 8.53,1.61 2.61,1.23 8.54,6.06 10.55,7.69 l 40.54,3.76 -8.75,1.81 -19.51,-2.02 -27.03,-6.94 -4.18,-2.09 -2.85,6.35 c 5.53,1.51 22.26,5.81 25.06,6.57 2.77,0.74 5.58,1.43 8.34,2.19 6.06,1.73 12.11,3.53 18.19,5.17 -1.76,0.18 -8.11,1.05 -9.39,0.94 -1.05,-0.11 -5.54,-1.78 -6.93,-2.18 -5.39,-1.6 -10.79,-3.14 -16.21,-4.64 -2.99,-0.81 -17.93,-4.7 -25.19,-6.02 l 0.52,-0.98 -2.79,1.2 -12.8,-5.14 1.53,-3.01 h 0.52 l 1.45,-2.72 -0.14,-0.42 1.73,-3.44 4.98,-3.97 z"
   id="path8618" />
		<polygon
   points="1209.82,378.14 1221.88,381 1226.88,375.96 1220.61,374.43 "
   id="polygon8620" />
		<path
   d="m 1209.85,359.7 c 0.04,0.06 0.05,0.1 0.06,0.19 -0.01,0.07 -0.03,0.17 -0.06,0.26 -0.02,0.1 -0.09,0.2 -0.13,0.32 l -0.19,0.36 -0.64,-0.34 0.22,-0.46 c 0.07,-0.11 0.09,-0.2 0.13,-0.25 0.03,-0.05 0.09,-0.13 0.15,-0.17 0.06,-0.04 0.12,-0.07 0.16,-0.08 0.04,-0.01 0.11,0 0.14,0.02 0.07,0.05 0.12,0.09 0.16,0.15 z m 0.4,0.37 c 0.02,-0.21 0,-0.41 -0.04,-0.58 -0.05,-0.15 -0.18,-0.3 -0.35,-0.38 -0.11,-0.07 -0.25,-0.08 -0.36,-0.08 -0.11,0 -0.23,0.07 -0.35,0.15 -0.12,0.08 -0.19,0.18 -0.28,0.27 -0.07,0.11 -0.15,0.24 -0.23,0.41 l -0.43,0.84 2.37,1.19 0.2,-0.43 -0.87,-0.45 0.24,-0.48 1.27,-0.34 0.36,-0.67 z m 1.84,-0.42 c 0.2,0.62 0.17,1.19 -0.12,1.75 -0.29,0.56 -0.73,0.95 -1.34,1.15 -0.62,0.2 -1.17,0.14 -1.75,-0.12 -0.56,-0.29 -0.95,-0.73 -1.13,-1.32 -0.2,-0.62 -0.17,-1.19 0.12,-1.75 0.29,-0.56 0.73,-0.95 1.34,-1.15 0.62,-0.2 1.17,-0.14 1.75,0.12 0.53,0.26 0.92,0.7 1.13,1.32 z m -2.98,-1.7 c -0.66,0.21 -1.16,0.64 -1.48,1.25 -0.32,0.61 -0.36,1.26 -0.15,1.92 0.21,0.66 0.64,1.16 1.25,1.48 0.62,0.32 1.26,0.36 1.92,0.15 0.66,-0.21 1.16,-0.64 1.48,-1.25 0.32,-0.61 0.36,-1.26 0.15,-1.92 -0.21,-0.66 -0.64,-1.16 -1.25,-1.48 -0.62,-0.32 -1.25,-0.39 -1.92,-0.15 z"
   id="path8622" />
		<path
   d="m 1225.8,412.95 -1.29,-0.21 -0.03,0.05 1.01,0.79 4.1,3.99 -0.5,1.05 -6.55,-6.38 0.35,-0.73 5.87,0.24 1.23,0.19 0.03,-0.07 -0.97,-0.73 -4.08,-3.98 0.5,-1.05 6.55,6.38 -0.35,0.73 z"
   id="path8624" />
		<path
   d="m 1232.55,409.8 c -0.2,-0.19 -0.32,-0.42 -0.35,-0.69 -0.03,-0.27 0.01,-0.53 0.14,-0.8 0.14,-0.28 0.3,-0.45 0.48,-0.51 0.19,-0.05 0.38,0.02 0.58,0.21 0.18,0.18 0.29,0.4 0.33,0.68 0.04,0.28 0,0.55 -0.14,0.84 -0.13,0.27 -0.29,0.42 -0.48,0.46 -0.19,0.06 -0.38,-0.01 -0.56,-0.19 z"
   id="path8626" />
		<path
   d="m 1233.06,402.62 -5.63,-0.61 0.62,-1.29 4.51,0.49 0.01,-0.01 -2,-5.75 0.57,-1.18 2.45,7.24 2.52,2.45 -0.53,1.1 z"
   id="path8628" />
		<path
   d="m 1237.23,400.02 c -0.2,-0.19 -0.32,-0.42 -0.35,-0.69 -0.03,-0.27 0.01,-0.53 0.14,-0.8 0.14,-0.28 0.3,-0.45 0.48,-0.51 0.19,-0.05 0.38,0.02 0.58,0.21 0.18,0.18 0.29,0.4 0.33,0.68 0.04,0.28 0,0.55 -0.14,0.84 -0.13,0.27 -0.29,0.42 -0.48,0.46 -0.19,0.05 -0.38,-0.01 -0.56,-0.19 z"
   id="path8630" />
		<path
   d="m 1237.79,387.09 -0.83,-1 -0.03,0.07 0.5,1.42 0.95,2.92 -0.16,0.33 -2.29,-0.14 -1.09,-0.16 -0.03,0.07 0.96,0.7 4.36,4.25 -0.52,1.08 -6.55,-6.38 0.49,-1.02 3.54,0.22 0.01,-0.03 -1.47,-4.55 0.48,-1 6.55,6.38 -0.53,1.1 z"
   id="path8632" />
		<path
   d="m 1243.17,387.6 c -0.2,-0.19 -0.32,-0.42 -0.35,-0.69 -0.03,-0.27 0.01,-0.53 0.14,-0.8 0.14,-0.28 0.3,-0.45 0.48,-0.51 0.19,-0.05 0.38,0.02 0.58,0.21 0.18,0.18 0.29,0.4 0.33,0.68 0.04,0.28 0,0.55 -0.14,0.84 -0.13,0.27 -0.29,0.42 -0.48,0.46 -0.19,0.05 -0.38,-0.02 -0.56,-0.19 z"
   id="path8634" />
</g>
<path
   d="m 112.63321,73.817736 7.36143,13.160479 62.90435,-6.003082 36.33524,60.753387 155.66861,-40.38936 37.50386,63.13415 140.47721,-72.529379 23.4376,39.305029 99.0744,-87.054172 0.0214,-2.369988 c -0.01,-1.75e-4 -89.58376,-8.014673 -562.78406,31.992936 z"
   id="path8638" />
<path
   d="m 771.16961,131.33954 26.04167,-38.831423 140.61042,74.545343 40.78894,-63.75784 164.57066,41.50847 39.5874,-61.388453 68.7484,6.420803 7.2293,-15.366172 c 0,0 -276.14059,-30.453955 -583.31878,-32.665291 l -0.0214,2.369988 z"
   id="path8640" />
<path
   id="L4"
   d="m 193.04054,485.50374 -1.41099,-5.68549 339.36979,-313.3149 42.21188,66.72686 z"
   class="panel" />
<path
   id="R4"
   d="m 815.95854,167.3167 349.60646,327.56136 -3.6034,5.89801 -386.62167,-265.70795 z"
   class="panel" />

<path
   id="L1"
   d="M 164.46679,156.57496 117.9052,73.749735 24.744833,82.125138 65.407468,180.30975 Z"
   class="panel" />
<path
   id="R1"
   d="m 1254.8827,74.072777 -53.7093,86.585833 106.5682,25.67378 44.4699,-103.319629 z"
   class="panel" />
<text
   xml:space="preserve"
   id="text8663"
   style="font-size:32px;line-height:normal;font-family:sans-serif;-inkscape-font-specification:'sans-serif, Normal';text-decoration-color:#000000;white-space:pre;shape-inside:url(#rect8665);display:inline;fill:#000000;-inkscape-stroke:none;stop-color:#000000"
   transform="rotate(1,9436.0255,1204.792)"><tspan
     x="54.677734"
     y="292.94218"
     id="tspan13504">L1</tspan></text><text
   xml:space="preserve"
   id="text8669"
   style="font-size:32px;line-height:normal;font-family:sans-serif;-inkscape-font-specification:'sans-serif, Normal';text-decoration-color:#000000;white-space:pre;shape-inside:url(#rect8671);display:inline;fill:#000000;-inkscape-stroke:none;stop-color:#000000"
   transform="rotate(1,9246.8456,1466.531)"><tspan
     x="245.36523"
     y="333.74101"
     id="tspan13506">L2</tspan></text><text
   xml:space="preserve"
   id="text8675"
   style="font-size:32px;line-height:normal;font-family:sans-serif;-inkscape-font-specification:'sans-serif, Normal';text-decoration-color:#000000;white-space:pre;shape-inside:url(#rect8677);display:inline;fill:#000000;-inkscape-stroke:none;stop-color:#000000"
   transform="rotate(1,10064.255,1612.9811)"><tspan
     x="427.25586"
     y="350.07304"
     id="tspan13508">L3</tspan></text><text
   xml:space="preserve"
   id="text8681"
   style="font-size:32px;line-height:normal;font-family:sans-serif;-inkscape-font-specification:'sans-serif, Normal';text-decoration-color:#000000;white-space:pre;shape-inside:url(#rect8683);display:inline;fill:#000000;-inkscape-stroke:none;stop-color:#000000"
   transform="rotate(1,10232.705,691.31293)"><tspan
     x="479.46484"
     y="414.50272"
     id="tspan13510">L4</tspan></text><text
   xml:space="preserve"
   id="text8687"
   style="font-size:32px;line-height:normal;font-family:sans-serif;-inkscape-font-specification:'sans-serif, Normal';text-decoration-color:#000000;white-space:pre;shape-inside:url(#rect8689);display:inline;fill:#000000;-inkscape-stroke:none;stop-color:#000000"
   transform="rotate(1,9193.9182,740.88429)"><tspan
     x="1250.4785"
     y="272.80546"
     id="tspan13512">R1</tspan></text><text
   xml:space="preserve"
   id="text8699"
   style="font-size:32px;line-height:normal;font-family:sans-serif;-inkscape-font-specification:'sans-serif, Normal';text-decoration-color:#000000;white-space:pre;shape-inside:url(#rect8701);display:inline;fill:#000000;-inkscape-stroke:none;stop-color:#000000"
   transform="rotate(1,8791.3249,1007.7963)"><tspan
     x="840.44727"
     y="321.08476"
     id="tspan13514">R3</tspan></text><text
   xml:space="preserve"
   id="text8705"
   style="font-size:32px;line-height:normal;font-family:sans-serif;-inkscape-font-specification:'sans-serif, Normal';text-decoration-color:#000000;white-space:pre;shape-inside:url(#rect8707);display:inline;fill:#000000;-inkscape-stroke:none;stop-color:#000000"
   transform="rotate(1,8853.618,830.4888)"><tspan
     x="805.47266"
     y="381.68046"
     id="tspan13516">R4</tspan></text><text
   xml:space="preserve"
   id="text8711"
   style="font-size:32px;line-height:normal;font-family:sans-serif;-inkscape-font-specification:'sans-serif, Normal';text-decoration-color:#000000;white-space:pre;shape-inside:url(#rect8713);display:inline;fill:#000000;-inkscape-stroke:none;stop-color:#000000"
   transform="rotate(1,9494.7294,1245.7962)"><tspan
     x="640.5625"
     y="269.77226"
     id="tspan13518">C</tspan></text><path
   id="R2"
   d="m 1081.989,244.66689 59.7482,-102.24495 -101.4273,-27.65778 -49.9683,82.07088 z"
   class="panel"
   sodipodi:nodetypes="ccccc" /><text
   xml:space="preserve"
   id="text8693"
   style="font-size:32px;line-height:normal;font-family:sans-serif;-inkscape-font-specification:'sans-serif, Normal';text-decoration-color:#000000;white-space:pre;shape-inside:url(#rect8695);display:inline;fill:#000000;-inkscape-stroke:none;stop-color:#000000"
   transform="rotate(1,8905.9855,1072.9086)"><tspan
     x="1028.4902"
     y="321.43241"
     id="tspan13520">R2</tspan></text><path
   style="fill:#000000;-inkscape-stroke:none;stop-color:#000000"
   d="m 572.10631,235.92021 49.60485,-31.62503 -5.20562,-9.84744 -49.46028,31.4987 z"
   id="path10777" /><path
   style="fill:#000000;-inkscape-stroke:none;stop-color:#000000"
   d="m 775.52734,237.80085 -49.53278,-33.22541 5.60123,-8.75628 48.26704,32.95963 z"
   id="path10858"
   sodipodi:nodetypes="ccccc" /></svg>
