<?xml version="1.0" encoding="UTF-8" standalone="no"?>
<svg
   class="revolution-reflex"
   version="2"
   id="NYMV1"
   x="0px"
   y="0px"
   viewBox="0 0 1366 510"
   xml:space="preserve"
   sodipodi:docname="nym-vent1.svg"
   inkscape:version="1.2.1 (9c6d41e410, 2022-07-14, custom)"
   width="1366"
   height="510"
   xmlns:inkscape="http://www.inkscape.org/namespaces/inkscape"
   xmlns:sodipodi="http://sodipodi.sourceforge.net/DTD/sodipodi-0.dtd"
   xmlns="http://www.w3.org/2000/svg"
   xmlns:svg="http://www.w3.org/2000/svg"><defs
   id="defs8653"><rect
     x="640.56335"
     y="240.6572"
     width="34.332153"
     height="55.399353"
     id="rect8713" /><rect
     x="805.47351"
     y="352.5639"
     width="62.553345"
     height="64.557312"
     id="rect8707" /><rect
     x="840.44763"
     y="291.96869"
     width="68.295532"
     height="70.287842"
     id="rect8701" /><rect
     x="1028.4896"
     y="292.31555"
     width="68.342529"
     height="65.643555"
     id="rect8695" /><rect
     x="1250.4792"
     y="243.68866"
     width="63.645996"
     height="59.76886"
     id="rect8689" /><rect
     x="479.46429"
     y="385.38757"
     width="56.342529"
     height="52.709839"
     id="rect8683" /><rect
     x="427.25659"
     y="320.95795"
     width="57.662537"
     height="50.425598"
     id="rect8677" /><rect
     x="245.36462"
     y="304.62546"
     width="59.006531"
     height="54.660248"
     id="rect8671" /><rect
     x="54.676941"
     y="263.8266"
     width="50.928436"
     height="53.73407"
     id="rect8665" /></defs><sodipodi:namedview
   id="namedview8651"
   pagecolor="#ffffff"
   bordercolor="#000000"
   borderopacity="0.25"
   inkscape:showpageshadow="2"
   inkscape:pageopacity="0.0"
   inkscape:pagecheckerboard="0"
   inkscape:deskcolor="#d1d1d1"
   showgrid="false"
   inkscape:zoom="1.0794084"
   inkscape:cx="793.027"
   inkscape:cy="327.95743"
   inkscape:window-width="1876"
   inkscape:window-height="991"
   inkscape:window-x="20"
   inkscape:window-y="67"
   inkscape:window-maximized="1"
   inkscape:current-layer="NYMV1" />


<path
   id="polygon8580"
   style="fill:#3a3d3a;stroke:#000000"
   d="M 374.17585,90.440771 457.38629,229.80422 409.16454,274.74948 309.05885,106.31674 Z" />
<polygon
   fill="#3a3d3a"
   stroke="#000000"
   points="550.05,246.33 491.99,276.78 566.35,394.89 621.18,358.28 "
   id="polygon8582"
   transform="rotate(1,10089.134,352.0368)" />
<polygon
   fill="#3a3d3a"
   stroke="#000000"
   points="846.84,271.75 790.8,242.67 720.55,357.17 775.72,392.28 "
   id="polygon8584"
   transform="rotate(1,10089.134,352.0368)" />
<polygon
   fill="#3a3d3a"
   stroke="#000000"
   points="1038.94,266.22 971.16,250.31 886.96,393.47 937.52,439.25 "
   id="polygon8586"
   transform="rotate(1,10089.134,352.0368)" />

<path
   class="leading-edge mesh"
   d="m 39.924433,58.382396 5.642928,17.071083 219.725199,-19.008161 35.60241,-2.118975 c 0,0 226.68863,-19.716743 372.56182,-17.480565 145.87319,2.236179 377.07311,14.573055 377.07311,14.573055 l 37.9396,2.642541 234.3321,21.983006 5.2109,-14.33124 -257.1707,-29.132687 -400.79372,-14.74706 -385.59151,16.20297 z"
   id="path8590" />
<path
   class="leading-edge"
   d="m 24.372886,77.243857 27.292099,-2.174018 -4.64178,-14.263183 218.377725,-18.591614 -0.0984,14.23045 35.60241,-2.118975 0.0984,-14.230451 c 0,0 207.68607,-16.297862 366.6209,-16.334072 158.93502,-0.04621 383.01406,13.426561 383.01406,13.426561 l -0.098,14.230452 37.9396,2.642541 0.098,-13.050283 234.6837,23.039306 -3.6472,11.838151 29.6294,2.587497 9.6756,-26.025099 -286.8322,-28.160204 c 0,0 -214.93921,-17.963943 -404.35658,-16.3294831 C 574.09169,8.7673419 282.11029,26.354242 282.11029,26.354242 L 12.517826,51.072972 Z"
   id="path8592" />
<path
   id="polygon8594"
   style="fill:#ffffff;stroke:#000000"
   d="M 293.80221,380.45222 160.47134,145.5595 61.802316,169.28111 191.11279,475.78457 Z" />
<path
   id="polygon8596"
   style="fill:#ffffff;stroke:#000000"
   d="m 358.1015,181.65412 53.90834,90.52462 -75.97272,68.82458 -66.0352,-113.7298 z" />
<path
   id="L2"
   d="m 312.3851,105.41465 47.48482,79.21079 -87.6445,46.47747 -56.51433,-99.37144 z"
   class="panel" />
<path
   id="L3"
   d="M 531.88264,163.62428 454.59029,232.41582 408.6604,154.0823 497.39949,107.92398 Z"
   class="panel" />
<path
   id="C"
   d="m 572.04065,119.96848 46.43659,75.66196 54.07601,-34.25146 53.13122,34.77256 45.61592,-75.5754 -97.83223,-86.100524 z"
   class="panel" />
<path
   id="R3"
   d="m 812.49629,163.57165 77.77019,71.7182 47.38453,-78.34496 -90.97448,-48.09504 z"
   class="panel" />

<path
   id="polygon8608"
   style="fill:#ffffff;stroke:#000000"
   d="m 934.43951,276.75709 77.17369,72.08785 70.5712,-116.91617 -91.18111,-47.7186 z" />
<polygon
   class="logo-panel"
   fill="#ffffff"
   stroke="#000000"
   points="1056.54,546.75 1199.83,303.95 1305.99,327.73 1165.68,646.12 "
   id="polygon8610"
   transform="rotate(1,10089.134,352.0368)" />
<g
   id="g8636"
   transform="rotate(1,10089.134,352.0368)">
		<path
   d="m 1188.17,397.45 c -0.3,5.11 7.93,6.37 11.04,6.99 3.16,0.61 10.94,0.76 17,-1.46 l -7.15,6.64 -25.52,-5.63 -3.04,4.95 c 10.71,2.52 21,4.51 32.1,7.59 -0.59,0.51 -6.79,6.02 -6.83,6.03 l -22.28,-5.08 2.83,-5.61 -7.65,-0.36 -8.59,13.75 6.89,2.94 3.38,-5.6 c 8.09,1.66 19.85,4.33 27.46,6.62 l -6.72,5.8 -32.53,-7.27 -3.13,5.16 c 9.79,2.08 19.28,4.12 29.62,6.62 -0.8,2.17 -2.44,3.62 -4.34,4.83 -6.09,0.64 -9.29,-1.35 -16.16,-3.86 l -10.54,-5.33 -3.27,5.37 c 5.49,3.31 21.43,12.26 37.06,9.58 l -3.98,2.93 c -0.04,0.01 -3.51,-1.51 -3.76,-1.64 l -2.96,7.44 -33.31,-7.39 -3.04,4.95 c 6.54,1.56 13.08,3.19 19.65,4.65 2.75,0.61 13.2,2.59 24.43,6.05 -0.66,0.44 -7.44,4.59 -7.48,4.6 l -3.03,-1.8 c -16.74,-8.42 -28.87,-9.47 -34.48,-7.43 -2.49,0.9 -4.2,0.84 -8.02,5.67 -1.38,2.96 -1.61,5.17 -0.74,6.25 3.49,4.34 8.52,5.63 19.09,8.18 11.2,2.69 26.4,1.75 26.4,1.75 -4.48,2.72 -8.38,5.59 -12.32,6.49 -0.67,0.17 -4.02,-0.83 -4.72,-1.14 -1.62,-0.67 -3.27,-1.25 -4.93,-1.86 l -27.6,-10.22 -3.47,5.28 33.06,11.6 c -2.96,-0.04 -5.42,-0.69 -8.28,-1.07 -2.81,-0.39 -5.7,-0.72 -8.52,-1.15 -5.1,-0.78 -10.08,-1.63 -15.19,-2.34 l -5.11,-0.71 -3.27,5.37 c 0,0 36.01,5.17 41.08,5.93 5.73,0.85 10.14,1.19 16.9,2.88 -0.79,0.35 -8.6,3.73 -8.64,3.74 -0.04,0.01 -4.39,-1.71 -4.74,-1.86 l -2.75,8.62 -1.95,0.65 -9.57,-2.42 2.62,-6.8 -12.38,-4.38 c -1.26,2.48 -2.4,4.77 -3.62,7.31 -1.84,0.13 -3.45,-0.28 -5.3,-0.76 0.36,-0.74 0.53,-1.64 1.11,-2.24 0.03,-0.05 2.78,-1.87 2.84,-1.91 -1.79,-0.41 -4.02,-0.42 -5.81,-0.79 l 2.5,-4.41 c 0,0 -13.37,-1.92 -13.49,-1.85 -2.71,3.86 -5.07,7.76 -7.51,11.79 7.3,1.78 14.65,3.64 21.89,5.57 3.89,1.04 7.79,2.17 11.72,3.1 2.85,0.68 5.62,1.37 8.43,2.1 2.77,0.74 5.56,1.52 8.31,2.36 3.86,1.14 7.12,1.71 11.25,3.47 -1.64,0.51 -3.04,1.18 -4.74,1.39 -2.99,0.35 -7.91,-0.31 -11.11,-0.5 -1.78,-0.36 -18.02,-4.62 -18.68,-5 -3.46,-2 -7.87,-4.02 -11.69,-5.06 -11.66,-3.02 -14.2,-1.44 -14.72,-1.56 -1.85,-0.44 -5.83,-1.33 -6.68,-1.76 l 5.36,-7.68 4.13,-6.01 2.39,-3.65 4.43,-4.51 -1.07,-0.54 3.72,-6.24 2.6,-2.47 0.22,-0.98 -0.01,-1.61 0.99,-2.46 2.39,-3.13 6.4,-6.75 -1.3,-0.65 3.16,-4.62 7.25,-8.48 -1.62,-1.08 3.13,-5.16 1.2,-1.28 9.24,-15.05 7.62,-11.83 3.05,-3.87 0.88,-1.71 0.44,-1.96 1.53,-3.01 3.59,-4.94 3.59,-4.41 -0.43,-0.2 2.3,-3.98 1.2,-1.28 0.74,-1.5 2.37,-2.58 -0.87,-0.45 3.61,-5.49 10.95,-13.65 2.71,-3.22 -2.61,5.16 7.66,1.98 -11.65,3.82 -2.84,4.52 25.09,5.95 -5.11,5.27 c -4.74,-4.02 -8.57,-5.96 -11.66,-6.5 -4.18,-0.71 -6.73,-1.38 -12.71,2.28 -3.09,3.21 -3.98,4.88 -5.38,9.21 z"
   id="path8612" />
		<path
   d="m 1201.89,398.88 c -4.46,-0.85 -6.55,-2.24 -6.08,-4.02 0.91,-3.45 5.71,-4.69 9.67,-3.08 4.03,1.63 7.87,3.5 6.88,5.44 -0.99,1.94 -6.28,2.46 -10.47,1.66 z"
   id="path8614" />
		<path
   d="m 1163.81,476.85 c -7.39,-0.94 -12.59,-3.54 -11,-6.3 2.09,-3.59 8.25,-2.95 15.33,-0.67 7.52,2.41 13.24,5.08 12.02,6.39 -2.54,2.85 -7.79,1.68 -16.35,0.58 z"
   id="path8616" />
		<path
   d="m 1109.46,519.91 -1.98,4.29 -1.1,2.69 14,5.46 c 0.24,-0.48 2.56,-5.08 2.61,-5.16 0.03,-0.05 2.8,-1.56 3.04,-1.7 l -1.71,-0.88 1.82,-3.05 c 4.21,-0.62 5.9,0.36 8.53,1.61 2.61,1.23 8.54,6.06 10.55,7.69 l 40.54,3.76 -8.75,1.81 -19.51,-2.02 -27.03,-6.94 -4.18,-2.09 -2.85,6.35 c 5.53,1.51 22.26,5.81 25.06,6.57 2.77,0.74 5.58,1.43 8.34,2.19 6.06,1.73 12.11,3.53 18.19,5.17 -1.76,0.18 -8.11,1.05 -9.39,0.94 -1.05,-0.11 -5.54,-1.78 -6.93,-2.18 -5.39,-1.6 -10.79,-3.14 -16.21,-4.64 -2.99,-0.81 -17.93,-4.7 -25.19,-6.02 l 0.52,-0.98 -2.79,1.2 -12.8,-5.14 1.53,-3.01 h 0.52 l 1.45,-2.72 -0.14,-0.42 1.73,-3.44 4.98,-3.97 z"
   id="path8618" />
		<polygon
   points="1209.82,378.14 1221.88,381 1226.88,375.96 1220.61,374.43 "
   id="polygon8620" />
		<path
   d="m 1209.85,359.7 c 0.04,0.06 0.05,0.1 0.06,0.19 -0.01,0.07 -0.03,0.17 -0.06,0.26 -0.02,0.1 -0.09,0.2 -0.13,0.32 l -0.19,0.36 -0.64,-0.34 0.22,-0.46 c 0.07,-0.11 0.09,-0.2 0.13,-0.25 0.03,-0.05 0.09,-0.13 0.15,-0.17 0.06,-0.04 0.12,-0.07 0.16,-0.08 0.04,-0.01 0.11,0 0.14,0.02 0.07,0.05 0.12,0.09 0.16,0.15 z m 0.4,0.37 c 0.02,-0.21 0,-0.41 -0.04,-0.58 -0.05,-0.15 -0.18,-0.3 -0.35,-0.38 -0.11,-0.07 -0.25,-0.08 -0.36,-0.08 -0.11,0 -0.23,0.07 -0.35,0.15 -0.12,0.08 -0.19,0.18 -0.28,0.27 -0.07,0.11 -0.15,0.24 -0.23,0.41 l -0.43,0.84 2.37,1.19 0.2,-0.43 -0.87,-0.45 0.24,-0.48 1.27,-0.34 0.36,-0.67 z m 1.84,-0.42 c 0.2,0.62 0.17,1.19 -0.12,1.75 -0.29,0.56 -0.73,0.95 -1.34,1.15 -0.62,0.2 -1.17,0.14 -1.75,-0.12 -0.56,-0.29 -0.95,-0.73 -1.13,-1.32 -0.2,-0.62 -0.17,-1.19 0.12,-1.75 0.29,-0.56 0.73,-0.95 1.34,-1.15 0.62,-0.2 1.17,-0.14 1.75,0.12 0.53,0.26 0.92,0.7 1.13,1.32 z m -2.98,-1.7 c -0.66,0.21 -1.16,0.64 -1.48,1.25 -0.32,0.61 -0.36,1.26 -0.15,1.92 0.21,0.66 0.64,1.16 1.25,1.48 0.62,0.32 1.26,0.36 1.92,0.15 0.66,-0.21 1.16,-0.64 1.48,-1.25 0.32,-0.61 0.36,-1.26 0.15,-1.92 -0.21,-0.66 -0.64,-1.16 -1.25,-1.48 -0.62,-0.32 -1.25,-0.39 -1.92,-0.15 z"
   id="path8622" />
		<path
   d="m 1225.8,412.95 -1.29,-0.21 -0.03,0.05 1.01,0.79 4.1,3.99 -0.5,1.05 -6.55,-6.38 0.35,-0.73 5.87,0.24 1.23,0.19 0.03,-0.07 -0.97,-0.73 -4.08,-3.98 0.5,-1.05 6.55,6.38 -0.35,0.73 z"
   id="path8624" />
		<path
   d="m 1232.55,409.8 c -0.2,-0.19 -0.32,-0.42 -0.35,-0.69 -0.03,-0.27 0.01,-0.53 0.14,-0.8 0.14,-0.28 0.3,-0.45 0.48,-0.51 0.19,-0.05 0.38,0.02 0.58,0.21 0.18,0.18 0.29,0.4 0.33,0.68 0.04,0.28 0,0.55 -0.14,0.84 -0.13,0.27 -0.29,0.42 -0.48,0.46 -0.19,0.06 -0.38,-0.01 -0.56,-0.19 z"
   id="path8626" />
		<path
   d="m 1233.06,402.62 -5.63,-0.61 0.62,-1.29 4.51,0.49 0.01,-0.01 -2,-5.75 0.57,-1.18 2.45,7.24 2.52,2.45 -0.53,1.1 z"
   id="path8628" />
		<path
   d="m 1237.23,400.02 c -0.2,-0.19 -0.32,-0.42 -0.35,-0.69 -0.03,-0.27 0.01,-0.53 0.14,-0.8 0.14,-0.28 0.3,-0.45 0.48,-0.51 0.19,-0.05 0.38,0.02 0.58,0.21 0.18,0.18 0.29,0.4 0.33,0.68 0.04,0.28 0,0.55 -0.14,0.84 -0.13,0.27 -0.29,0.42 -0.48,0.46 -0.19,0.05 -0.38,-0.01 -0.56,-0.19 z"
   id="path8630" />
		<path
   d="m 1237.79,387.09 -0.83,-1 -0.03,0.07 0.5,1.42 0.95,2.92 -0.16,0.33 -2.29,-0.14 -1.09,-0.16 -0.03,0.07 0.96,0.7 4.36,4.25 -0.52,1.08 -6.55,-6.38 0.49,-1.02 3.54,0.22 0.01,-0.03 -1.47,-4.55 0.48,-1 6.55,6.38 -0.53,1.1 z"
   id="path8632" />
		<path
   d="m 1243.17,387.6 c -0.2,-0.19 -0.32,-0.42 -0.35,-0.69 -0.03,-0.27 0.01,-0.53 0.14,-0.8 0.14,-0.28 0.3,-0.45 0.48,-0.51 0.19,-0.05 0.38,0.02 0.58,0.21 0.18,0.18 0.29,0.4 0.33,0.68 0.04,0.28 0,0.55 -0.14,0.84 -0.13,0.27 -0.29,0.42 -0.48,0.46 -0.19,0.05 -0.38,-0.02 -0.56,-0.19 z"
   id="path8634" />
</g>
<path
   d="m 110.69409,66.468729 7.36143,13.160479 62.90435,-6.003082 36.33524,60.753384 155.66861,-40.389353 37.50386,63.134143 140.47721,-72.529376 23.4376,39.305026 99.0744,-87.054172 0.0214,-2.369988 c -0.01,-1.74e-4 -89.58376,-8.014673 -562.78406,31.992939 z"
   id="path8638" />
<path
   d="m 769.23049,123.99053 26.04167,-38.83142 140.61042,74.54534 40.78894,-63.757841 164.57068,41.508471 39.5874,-61.38845 68.7484,6.420803 7.2293,-15.366172 c 0,0 -276.14061,-30.453958 -583.3188,-32.665293 l -0.0214,2.369988 z"
   id="path8640" />
<path
   id="L4"
   d="m 191.10142,478.15473 -1.41099,-5.68549 339.36979,-313.3149 42.21188,66.72686 z"
   class="panel" />
<path
   id="R4"
   d="m 814.01942,159.96769 349.60648,327.56136 -3.6034,5.89801 -386.62169,-265.70795 z"
   class="panel" />

<path
   id="L1"
   d="M 162.52767,149.22595 115.96608,66.400727 22.805716,74.77613 63.468351,172.96074 Z"
   class="panel" />
<path
   id="R1"
   d="m 1252.9436,66.72377 -53.7093,86.58583 106.5682,25.67378 44.4699,-103.319626 z"
   class="panel" />
<text
   xml:space="preserve"
   id="text8663"
   style="font-size:32px;line-height:normal;font-family:sans-serif;-inkscape-font-specification:'sans-serif, Normal';text-decoration-color:#000000;white-space:pre;shape-inside:url(#rect8665);display:inline;fill:#000000;-inkscape-stroke:none;stop-color:#000000"
   transform="rotate(1,9932.9493,969.29039)"><tspan
     x="54.677734"
     y="292.94218"
     id="tspan12932">L1</tspan></text><text
   xml:space="preserve"
   id="text8669"
   style="font-size:32px;line-height:normal;font-family:sans-serif;-inkscape-font-specification:'sans-serif, Normal';text-decoration-color:#000000;white-space:pre;shape-inside:url(#rect8671);display:inline;fill:#000000;-inkscape-stroke:none;stop-color:#000000"
   transform="rotate(1,9640.3565,1460.9876)"><tspan
     x="245.36523"
     y="333.74101"
     id="tspan12934">L2</tspan></text><text
   xml:space="preserve"
   id="text8675"
   style="font-size:32px;line-height:normal;font-family:sans-serif;-inkscape-font-specification:'sans-serif, Normal';text-decoration-color:#000000;white-space:pre;shape-inside:url(#rect8677);display:inline;fill:#000000;-inkscape-stroke:none;stop-color:#000000"
   transform="rotate(1,10484.342,1498.2061)"><tspan
     x="427.25586"
     y="350.07304"
     id="tspan12936">L3</tspan></text><text
   xml:space="preserve"
   id="text8681"
   style="font-size:32px;line-height:normal;font-family:sans-serif;-inkscape-font-specification:'sans-serif, Normal';text-decoration-color:#000000;white-space:pre;shape-inside:url(#rect8683);display:inline;fill:#000000;-inkscape-stroke:none;stop-color:#000000"
   transform="rotate(1,10725.369,718.17339)"><tspan
     x="479.46484"
     y="414.50272"
     id="tspan12938">L4</tspan></text><text
   xml:space="preserve"
   id="text8687"
   style="font-size:32px;line-height:normal;font-family:sans-serif;-inkscape-font-specification:'sans-serif, Normal';text-decoration-color:#000000;white-space:pre;shape-inside:url(#rect8689);display:inline;fill:#000000;-inkscape-stroke:none;stop-color:#000000"
   transform="rotate(1,9651.1268,768.64389)"><tspan
     x="1250.4785"
     y="272.80546"
     id="tspan12940">R1</tspan></text><text
   xml:space="preserve"
   id="text8699"
   style="font-size:32px;line-height:normal;font-family:sans-serif;-inkscape-font-specification:'sans-serif, Normal';text-decoration-color:#000000;white-space:pre;shape-inside:url(#rect8701);display:inline;fill:#000000;-inkscape-stroke:none;stop-color:#000000"
   transform="rotate(1,9386.6408,813.53335)"><tspan
     x="840.44727"
     y="321.08476"
     id="tspan12942">R3</tspan></text><text
   xml:space="preserve"
   id="text8705"
   style="font-size:32px;line-height:normal;font-family:sans-serif;-inkscape-font-specification:'sans-serif, Normal';text-decoration-color:#000000;white-space:pre;shape-inside:url(#rect8707);display:inline;fill:#000000;-inkscape-stroke:none;stop-color:#000000"
   transform="rotate(1,9524.5188,493.69607)"><tspan
     x="805.47266"
     y="381.68046"
     id="tspan12944">R4</tspan></text><text
   xml:space="preserve"
   id="text8711"
   style="font-size:32px;line-height:normal;font-family:sans-serif;-inkscape-font-specification:'sans-serif, Normal';text-decoration-color:#000000;white-space:pre;shape-inside:url(#rect8713);display:inline;fill:#000000;-inkscape-stroke:none;stop-color:#000000"
   transform="rotate(1,9914.8164,1131.0213)"><tspan
     x="640.5625"
     y="269.77226"
     id="tspan12946">C</tspan></text><path
   id="R2"
   d="m 1080.0499,237.31788 63.071,-102.64043 -104.7501,-27.2623 -49.96832,82.07088 z"
   class="panel"
   sodipodi:nodetypes="ccccc" /><text
   xml:space="preserve"
   id="text8693"
   style="font-size:32px;line-height:normal;font-family:sans-serif;-inkscape-font-specification:'sans-serif, Normal';text-decoration-color:#000000;white-space:pre;shape-inside:url(#rect8695);display:inline;fill:#000000;-inkscape-stroke:none;stop-color:#000000"
   transform="rotate(1,9326.0725,958.13375)"><tspan
     x="1028.4902"
     y="321.43241"
     id="tspan12948">R2</tspan></text></svg>
