<?xml version="1.0" encoding="UTF-8" standalone="no"?>
<svg
   class="revolution-reflex"
   version="2"
   id="NYMV2"
   x="0px"
   y="0px"
   viewBox="0 0 1366 768"
   style="enable-background:new 0 0 1366 768;"
   xml:space="preserve"
   sodipodi:docname="nym-vent2.svg"
   inkscape:version="1.2.1 (9c6d41e410, 2022-07-14, custom)"
   xmlns:inkscape="http://www.inkscape.org/namespaces/inkscape"
   xmlns:sodipodi="http://sodipodi.sourceforge.net/DTD/sodipodi-0.dtd"
   xmlns="http://www.w3.org/2000/svg"
   xmlns:svg="http://www.w3.org/2000/svg"><defs
   id="defs8653"><rect
     x="640.56335"
     y="240.6572"
     width="34.332154"
     height="55.399353"
     id="rect8713" /><rect
     x="805.47351"
     y="352.5639"
     width="62.553345"
     height="64.557312"
     id="rect8707" /><rect
     x="840.44763"
     y="291.96869"
     width="68.295532"
     height="70.287842"
     id="rect8701" /><rect
     x="1028.4896"
     y="292.31555"
     width="68.342529"
     height="65.643555"
     id="rect8695" /><rect
     x="1250.4792"
     y="243.68866"
     width="63.645996"
     height="59.76886"
     id="rect8689" /><rect
     x="479.46429"
     y="385.38757"
     width="56.34253"
     height="52.709839"
     id="rect8683" /><rect
     x="427.25659"
     y="320.95795"
     width="57.662537"
     height="50.425598"
     id="rect8677" /><rect
     x="245.36462"
     y="304.62546"
     width="59.006531"
     height="54.660248"
     id="rect8671" /><rect
     x="54.676941"
     y="263.8266"
     width="50.928437"
     height="53.73407"
     id="rect8665" /></defs><sodipodi:namedview
   id="namedview8651"
   pagecolor="#ffffff"
   bordercolor="#000000"
   borderopacity="0.25"
   inkscape:showpageshadow="2"
   inkscape:pageopacity="0.0"
   inkscape:pagecheckerboard="0"
   inkscape:deskcolor="#d1d1d1"
   showgrid="false"
   inkscape:zoom="1.2089901"
   inkscape:cx="1306.8759"
   inkscape:cy="368.0758"
   inkscape:window-width="1876"
   inkscape:window-height="991"
   inkscape:window-x="20"
   inkscape:window-y="67"
   inkscape:window-maximized="1"
   inkscape:current-layer="NYMV2" />



<polygon
   fill="#3A3D3A"
   stroke="#000000"
   points="621.18,358.28 550.05,246.33 491.99,276.78 566.35,394.89 "
   id="polygon8582" />
<polygon
   fill="#3A3D3A"
   stroke="#000000"
   points="775.72,392.28 846.84,271.75 790.8,242.67 720.55,357.17 "
   id="polygon8584" />


<path
   class="leading-edge mesh"
   d="M36.33,233.81l5.94,16.97l219.36-22.84l35.56-2.74c0,0,226.31-23.67,372.2-23.98  c145.89-0.31,377.27,7.99,377.27,7.99l37.98,1.98l234.68,17.89l4.96-14.42l-257.64-24.64l-400.99-7.75l-385.25,22.93L36.33,233.81z"
   id="path8590" />
<path
   class="leading-edge"
   d="M21.11,252.94l27.25-2.65l-4.89-14.18l218.02-22.4l0.15,14.23l35.56-2.74l-0.15-14.23  c0,0,207.37-19.92,366.28-22.73c158.91-2.82,383.19,6.74,383.19,6.74l0.15,14.23l37.98,1.98l-0.13-13.05l235.05,18.94l-3.44,11.9  l29.67,2.07l9.22-26.19l-287.28-23.15c0,0-215.22-14.21-404.58-9.27c-93.61,2.44-385.24,25.12-385.24,25.12L8.8,226.98L21.11,252.94  z"
   id="path8592" />
<path
   id="polygon8594"
   style="fill:#ffffff;stroke:#000000"
   d="M 295.79,551.4 158.38,318.87 60.14,344.31 194.78,648.51 Z" />
<path
   id="polygon8596"
   style="fill:#ffffff;stroke:#000000"
   d="m 356.61,351.51 55.48,89.57 -74.76,70.14 -68.01,-112.56 z" />
<path
   id="L2"
   d="m 309.57,276.08 48.86,78.37 -86.82,48 -58.24,-98.37 z"
   class="panel" />
<path
   id="L3"
   d="m 530.05,330.45 -76.08,70.13 -47.29,-77.52 87.92,-47.7 z"
   class="panel" />
<path
   id="C"
   d="m 569.44,286.1 47.75,74.84 53.47,-35.19 53.73,33.84 44.29,-76.36 -99.32,-84.38 z"
   class="panel" />
<path
   id="R3"
   d="m 810.62,325.5 79.01,70.35 46.01,-79.16 -91.8,-46.5 z"
   class="panel" />

<path
   id="polygon8608"
   style="fill:#ffffff;stroke:#000000"
   d="m 934.52,436.54 78.42,70.73 68.52,-118.13 -92,-46.12 z" />
<polygon
   class="logo-panel"
   fill="#ffffff"
   stroke="#000000"
   points="1165.68,646.12 1056.54,546.75 1199.83,303.95 1305.99,327.73 "
   id="polygon8610" />
<g
   id="g8636">
		<path
   d="M1188.17,397.45c-0.3,5.11,7.93,6.37,11.04,6.99c3.16,0.61,10.94,0.76,17-1.46l-7.15,6.64l-25.52-5.63l-3.04,4.95    c10.71,2.52,21,4.51,32.1,7.59c-0.59,0.51-6.79,6.02-6.83,6.03l-22.28-5.08l2.83-5.61l-7.65-0.36l-8.59,13.75l6.89,2.94l3.38-5.6    c8.09,1.66,19.85,4.33,27.46,6.62l-6.72,5.8l-32.53-7.27l-3.13,5.16c9.79,2.08,19.28,4.12,29.62,6.62    c-0.8,2.17-2.44,3.62-4.34,4.83c-6.09,0.64-9.29-1.35-16.16-3.86l-10.54-5.33l-3.27,5.37c5.49,3.31,21.43,12.26,37.06,9.58    l-3.98,2.93c-0.04,0.01-3.51-1.51-3.76-1.64l-2.96,7.44l-33.31-7.39l-3.04,4.95c6.54,1.56,13.08,3.19,19.65,4.65    c2.75,0.61,13.2,2.59,24.43,6.05c-0.66,0.44-7.44,4.59-7.48,4.6l-3.03-1.8c-16.74-8.42-28.87-9.47-34.48-7.43    c-2.49,0.9-4.2,0.84-8.02,5.67c-1.38,2.96-1.61,5.17-0.74,6.25c3.49,4.34,8.52,5.63,19.09,8.18c11.2,2.69,26.4,1.75,26.4,1.75    c-4.48,2.72-8.38,5.59-12.32,6.49c-0.67,0.17-4.02-0.83-4.72-1.14c-1.62-0.67-3.27-1.25-4.93-1.86l-27.6-10.22l-3.47,5.28    l33.06,11.6c-2.96-0.04-5.42-0.69-8.28-1.07c-2.81-0.39-5.7-0.72-8.52-1.15c-5.1-0.78-10.08-1.63-15.19-2.34l-5.11-0.71    l-3.27,5.37c0,0,36.01,5.17,41.08,5.93c5.73,0.85,10.14,1.19,16.9,2.88c-0.79,0.35-8.6,3.73-8.64,3.74    c-0.04,0.01-4.39-1.71-4.74-1.86l-2.75,8.62l-1.95,0.65l-9.57-2.42l2.62-6.8l-12.38-4.38c-1.26,2.48-2.4,4.77-3.62,7.31    c-1.84,0.13-3.45-0.28-5.3-0.76c0.36-0.74,0.53-1.64,1.11-2.24c0.03-0.05,2.78-1.87,2.84-1.91c-1.79-0.41-4.02-0.42-5.81-0.79    l2.5-4.41c0,0-13.37-1.92-13.49-1.85c-2.71,3.86-5.07,7.76-7.51,11.79c7.3,1.78,14.65,3.64,21.89,5.57    c3.89,1.04,7.79,2.17,11.72,3.1c2.85,0.68,5.62,1.37,8.43,2.1c2.77,0.74,5.56,1.52,8.31,2.36c3.86,1.14,7.12,1.71,11.25,3.47    c-1.64,0.51-3.04,1.18-4.74,1.39c-2.99,0.35-7.91-0.31-11.11-0.5c-1.78-0.36-18.02-4.62-18.68-5c-3.46-2-7.87-4.02-11.69-5.06    c-11.66-3.02-14.2-1.44-14.72-1.56c-1.85-0.44-5.83-1.33-6.68-1.76l5.36-7.68l4.13-6.01l2.39-3.65l4.43-4.51l-1.07-0.54l3.72-6.24    l2.6-2.47l0.22-0.98l-0.01-1.61l0.99-2.46l2.39-3.13l6.4-6.75l-1.3-0.65l3.16-4.62l7.25-8.48l-1.62-1.08l3.13-5.16l1.2-1.28    l9.24-15.05l7.62-11.83l3.05-3.87l0.88-1.71l0.44-1.96l1.53-3.01l3.59-4.94l3.59-4.41l-0.43-0.2l2.3-3.98l1.2-1.28l0.74-1.5    l2.37-2.58l-0.87-0.45l3.61-5.49l10.95-13.65l2.71-3.22l-2.61,5.16l7.66,1.98l-11.65,3.82l-2.84,4.52l25.09,5.95l-5.11,5.27    c-4.74-4.02-8.57-5.96-11.66-6.5c-4.18-0.71-6.73-1.38-12.71,2.28C1190.46,391.45,1189.57,393.12,1188.17,397.45z"
   id="path8612" />
		<path
   d="M1201.89,398.88c-4.46-0.85-6.55-2.24-6.08-4.02c0.91-3.45,5.71-4.69,9.67-3.08c4.03,1.63,7.87,3.5,6.88,5.44    S1206.08,399.68,1201.89,398.88z"
   id="path8614" />
		<path
   d="M1163.81,476.85c-7.39-0.94-12.59-3.54-11-6.3c2.09-3.59,8.25-2.95,15.33-0.67c7.52,2.41,13.24,5.08,12.02,6.39    C1177.62,479.12,1172.37,477.95,1163.81,476.85z"
   id="path8616" />
		<path
   d="M1109.46,519.91l-1.98,4.29l-1.1,2.69l14,5.46c0.24-0.48,2.56-5.08,2.61-5.16c0.03-0.05,2.8-1.56,3.04-1.7l-1.71-0.88    l1.82-3.05c4.21-0.62,5.9,0.36,8.53,1.61c2.61,1.23,8.54,6.06,10.55,7.69l40.54,3.76l-8.75,1.81l-19.51-2.02l-27.03-6.94    l-4.18-2.09l-2.85,6.35c5.53,1.51,22.26,5.81,25.06,6.57c2.77,0.74,5.58,1.43,8.34,2.19c6.06,1.73,12.11,3.53,18.19,5.17    c-1.76,0.18-8.11,1.05-9.39,0.94c-1.05-0.11-5.54-1.78-6.93-2.18c-5.39-1.6-10.79-3.14-16.21-4.64    c-2.99-0.81-17.93-4.7-25.19-6.02l0.52-0.98l-2.79,1.2l-12.8-5.14l1.53-3.01l0.52,0l1.45-2.72l-0.14-0.42l1.73-3.44l4.98-3.97    L1109.46,519.91z"
   id="path8618" />
		<polygon
   points="1220.61,374.43 1209.82,378.14 1221.88,381 1226.88,375.96   "
   id="polygon8620" />
		<path
   d="M1209.85,359.7c0.04,0.06,0.05,0.1,0.06,0.19c-0.01,0.07-0.03,0.17-0.06,0.26c-0.02,0.1-0.09,0.2-0.13,0.32l-0.19,0.36    l-0.64-0.34l0.22-0.46c0.07-0.11,0.09-0.2,0.13-0.25c0.03-0.05,0.09-0.13,0.15-0.17c0.06-0.04,0.12-0.07,0.16-0.08    s0.11,0,0.14,0.02C1209.76,359.6,1209.81,359.64,1209.85,359.7z M1210.25,360.07c0.02-0.21,0-0.41-0.04-0.58    c-0.05-0.15-0.18-0.3-0.35-0.38c-0.11-0.07-0.25-0.08-0.36-0.08c-0.11,0-0.23,0.07-0.35,0.15s-0.19,0.18-0.28,0.27    c-0.07,0.11-0.15,0.24-0.23,0.41l-0.43,0.84l2.37,1.19l0.2-0.43l-0.87-0.45l0.24-0.48l1.27-0.34l0.36-0.67L1210.25,360.07z     M1212.09,359.65c0.2,0.62,0.17,1.19-0.12,1.75c-0.29,0.56-0.73,0.95-1.34,1.15c-0.62,0.2-1.17,0.14-1.75-0.12    c-0.56-0.29-0.95-0.73-1.13-1.32c-0.2-0.62-0.17-1.19,0.12-1.75c0.29-0.56,0.73-0.95,1.34-1.15c0.62-0.2,1.17-0.14,1.75,0.12    C1211.49,358.59,1211.88,359.03,1212.09,359.65z M1209.11,357.95c-0.66,0.21-1.16,0.64-1.48,1.25s-0.36,1.26-0.15,1.92    s0.64,1.16,1.25,1.48c0.62,0.32,1.26,0.36,1.92,0.15s1.16-0.64,1.48-1.25s0.36-1.26,0.15-1.92s-0.64-1.16-1.25-1.48    C1210.41,357.78,1209.78,357.71,1209.11,357.95z"
   id="path8622" />
		<path
   d="M1225.8,412.95l-1.29-0.21l-0.03,0.05l1.01,0.79l4.1,3.99l-0.5,1.05l-6.55-6.38l0.35-0.73l5.87,0.24l1.23,0.19l0.03-0.07    l-0.97-0.73l-4.08-3.98l0.5-1.05l6.55,6.38l-0.35,0.73L1225.8,412.95z"
   id="path8624" />
		<path
   d="M1232.55,409.8c-0.2-0.19-0.32-0.42-0.35-0.69c-0.03-0.27,0.01-0.53,0.14-0.8c0.14-0.28,0.3-0.45,0.48-0.51    c0.19-0.05,0.38,0.02,0.58,0.21c0.18,0.18,0.29,0.4,0.33,0.68c0.04,0.28,0,0.55-0.14,0.84c-0.13,0.27-0.29,0.42-0.48,0.46    C1232.92,410.05,1232.73,409.98,1232.55,409.8z"
   id="path8626" />
		<path
   d="M1233.06,402.62l-5.63-0.61l0.62-1.29l4.51,0.49l0.01-0.01l-2-5.75l0.57-1.18l2.45,7.24l2.52,2.45l-0.53,1.1    L1233.06,402.62z"
   id="path8628" />
		<path
   d="M1237.23,400.02c-0.2-0.19-0.32-0.42-0.35-0.69c-0.03-0.27,0.01-0.53,0.14-0.8c0.14-0.28,0.3-0.45,0.48-0.51    c0.19-0.05,0.38,0.02,0.58,0.21c0.18,0.18,0.29,0.4,0.33,0.68c0.04,0.28,0,0.55-0.14,0.84c-0.13,0.27-0.29,0.42-0.48,0.46    C1237.6,400.26,1237.41,400.2,1237.23,400.02z"
   id="path8630" />
		<path
   d="M1237.79,387.09l-0.83-1l-0.03,0.07l0.5,1.42l0.95,2.92l-0.16,0.33l-2.29-0.14l-1.09-0.16l-0.03,0.07l0.96,0.7l4.36,4.25    l-0.52,1.08l-6.55-6.38l0.49-1.02l3.54,0.22l0.01-0.03l-1.47-4.55l0.48-1l6.55,6.38l-0.53,1.1L1237.79,387.09z"
   id="path8632" />
		<path
   d="M1243.17,387.6c-0.2-0.19-0.32-0.42-0.35-0.69c-0.03-0.27,0.01-0.53,0.14-0.8c0.14-0.28,0.3-0.45,0.48-0.51    c0.19-0.05,0.38,0.02,0.58,0.21c0.18,0.18,0.29,0.4,0.33,0.68c0.04,0.28,0,0.55-0.14,0.84c-0.13,0.27-0.29,0.42-0.48,0.46    C1243.54,387.84,1243.35,387.77,1243.17,387.6z"
   id="path8634" />
</g>
<path
   d="M107.23,240.66l7.59,13.03l62.79-7.1L215,306.7l154.94-43.1l38.6,62.47l139.19-74.97l24.12,38.89l97.54-88.77  l-0.02-2.37C669.36,198.85,579.66,192.4,107.23,240.66z"
   id="path8638" />
<path
   d="M766.67,286.68l25.36-39.28l141.89,72.08l39.67-64.46l165.27,38.63l38.51-62.07l68.85,5.22l6.96-15.49  c0,0-276.63-25.63-583.8-22.48l0.02,2.37L766.67,286.68z"
   id="path8640" />
<path
   id="L4"
   d="m 194.81,650.88 -1.51,-5.66 333.85,-319.19 43.37,65.98 z"
   class="panel" />
<path
   id="R4"
   d="m 812.08,321.87 355.27,321.41 -3.5,5.96 -391.2,-258.92 z"
   class="panel" />

<path
   id="L1"
   d="m 160.5,322.5 -48,-82 -93,10 42.37,97.46 z"
   class="panel" />
<path
   id="R1"
   d="m 1249.31,220.98 -52.19,87.51 107,23.81 42.66,-104.08 z"
   class="panel" />
<text
   xml:space="preserve"
   id="text8663"
   style="font-size:32px;line-height:normal;font-family:sans-serif;-inkscape-font-specification:'sans-serif, Normal';text-decoration-color:#000000;white-space:pre;shape-inside:url(#rect8665);display:inline;fill:#000000;-inkscape-stroke:none;stop-color:#000000"
   transform="translate(7.0876312,0.86669922)"><tspan
     x="54.677734"
     y="292.94218"
     id="tspan11850">L1</tspan></text><text
   xml:space="preserve"
   id="text8669"
   style="font-size:32px;line-height:normal;font-family:sans-serif;-inkscape-font-specification:'sans-serif, Normal';text-decoration-color:#000000;white-space:pre;shape-inside:url(#rect8671);display:inline;fill:#000000;-inkscape-stroke:none;stop-color:#000000"
   transform="translate(17.51181,7.216156)"><tspan
     x="245.36523"
     y="333.74101"
     id="tspan11852">L2</tspan></text><text
   xml:space="preserve"
   id="text8675"
   style="font-size:32px;line-height:normal;font-family:sans-serif;-inkscape-font-specification:'sans-serif, Normal';text-decoration-color:#000000;white-space:pre;shape-inside:url(#rect8677);display:inline;fill:#000000;-inkscape-stroke:none;stop-color:#000000"
   transform="translate(19.943221,-7.0719066)"><tspan
     x="427.25586"
     y="350.07304"
     id="tspan11854">L3</tspan></text><text
   xml:space="preserve"
   id="text8681"
   style="font-size:32px;line-height:normal;font-family:sans-serif;-inkscape-font-specification:'sans-serif, Normal';text-decoration-color:#000000;white-space:pre;shape-inside:url(#rect8683);display:inline;fill:#000000;-inkscape-stroke:none;stop-color:#000000"
   transform="translate(4.2727661,-14.118896)"><tspan
     x="479.46484"
     y="414.50272"
     id="tspan11856">L4</tspan></text><text
   xml:space="preserve"
   id="text8687"
   style="font-size:32px;line-height:normal;font-family:sans-serif;-inkscape-font-specification:'sans-serif, Normal';text-decoration-color:#000000;white-space:pre;shape-inside:url(#rect8689);display:inline;fill:#000000;-inkscape-stroke:none;stop-color:#000000"
   transform="translate(6.4560982,7.9353419)"><tspan
     x="1250.4785"
     y="272.80546"
     id="tspan11858">R1</tspan></text><text
   xml:space="preserve"
   id="text8699"
   style="font-size:32px;line-height:normal;font-family:sans-serif;-inkscape-font-specification:'sans-serif, Normal';text-decoration-color:#000000;white-space:pre;shape-inside:url(#rect8701);display:inline;fill:#000000;-inkscape-stroke:none;stop-color:#000000"
   transform="translate(5.1907959,7.12677)"><tspan
     x="840.44727"
     y="321.08476"
     id="tspan11860">R3</tspan></text><text
   xml:space="preserve"
   id="text8705"
   style="font-size:32px;line-height:normal;font-family:sans-serif;-inkscape-font-specification:'sans-serif, Normal';text-decoration-color:#000000;white-space:pre;shape-inside:url(#rect8707);display:inline;fill:#000000;-inkscape-stroke:none;stop-color:#000000"
   transform="translate(2.5582886,8.2332764)"><tspan
     x="805.47266"
     y="381.68046"
     id="tspan11862">R4</tspan></text><text
   xml:space="preserve"
   id="text8711"
   style="font-size:32px;line-height:normal;font-family:sans-serif;-inkscape-font-specification:'sans-serif, Normal';text-decoration-color:#000000;white-space:pre;shape-inside:url(#rect8713);display:inline;fill:#000000;-inkscape-stroke:none;stop-color:#000000"
   transform="translate(13.621704,2.9236145)"><tspan
     x="640.5625"
     y="269.77226"
     id="tspan11864">C</tspan></text><path
   id="R2"
   d="M 1079.4199,394.56554 1140.69,290.84 1035.48,265.41 986.95166,348.34044 Z"
   class="panel"
   sodipodi:nodetypes="ccccc" /><text
   xml:space="preserve"
   id="text8693"
   style="font-size:32px;line-height:normal;font-family:sans-serif;-inkscape-font-specification:'sans-serif, Normal';text-decoration-color:#000000;white-space:pre;shape-inside:url(#rect8695);display:inline;fill:#000000;-inkscape-stroke:none;stop-color:#000000"
   transform="translate(10.694068,13.224939)"><tspan
     x="1028.4902"
     y="321.43241"
     id="tspan11866">R2</tspan></text></svg>
