<?xml version="1.0" encoding="UTF-8" standalone="no"?>
<svg
   class="revolution-reflex"
   version="2"
   id="revolution-reflex-rx"
   x="0px"
   y="0px"
   viewBox="0 0 4740 1576"
   style="enable-background:new 0 0 4740 1576;"
   xml:space="preserve"
   sodipodi:docname="rx.svg"
   inkscape:version="1.2.1 (9c6d41e410, 2022-07-14, custom)"
   xmlns:inkscape="http://www.inkscape.org/namespaces/inkscape"
   xmlns:sodipodi="http://sodipodi.sourceforge.net/DTD/sodipodi-0.dtd"
   xmlns="http://www.w3.org/2000/svg"
   xmlns:svg="http://www.w3.org/2000/svg"><defs
   id="defs929"><rect
     x="1441.6073"
     y="552.15921"
     width="74.800524"
     height="73.846971"
     id="rect1191" /><rect
     x="1316.4961"
     y="268.17004"
     width="121.73884"
     height="104.97501"
     id="rect1185" /><rect
     x="1812.9185"
     y="465.37721"
     width="81.325381"
     height="83.988817"
     id="rect1179" /><rect
     x="1344.9449"
     y="863.53089"
     width="83.134415"
     height="84.470147"
     id="rect1173" /><rect
     x="1150.7977"
     y="1148.9662"
     width="75.675847"
     height="85.539467"
     id="rect1167" /><rect
     x="1052.6619"
     y="510.63354"
     width="112.16301"
     height="112.1944"
     id="rect1159" /><rect
     x="1068.3992"
     y="525.74092"
     width="104.75896"
     height="108.84794"
     id="rect1153" /><rect
     x="796.28054"
     y="1348.1046"
     width="68.309218"
     height="81.390384"
     id="rect1147" /><rect
     x="848.43918"
     y="708.40047"
     width="73.112659"
     height="85.78483"
     id="rect1141" /><rect
     x="529.31461"
     y="352.20291"
     width="72.079535"
     height="89.636133"
     id="rect1135" /><rect
     x="1383.4377"
     y="145.99211"
     width="58.526437"
     height="61.278755"
     id="rect1129" /><rect
     x="367.18799"
     y="630.29914"
     width="61.693169"
     height="67.905313"
     id="rect1073" /><rect
     x="367.18799"
     y="630.29913"
     width="61.693169"
     height="67.905312"
     id="rect1073-3" /><rect
     x="1383.4377"
     y="145.99211"
     width="58.526436"
     height="61.278755"
     id="rect1129-7" /><rect
     x="529.31464"
     y="352.20291"
     width="72.079536"
     height="89.636131"
     id="rect1135-3" /><rect
     x="848.43921"
     y="708.40045"
     width="73.112656"
     height="85.784828"
     id="rect1141-6" /><rect
     x="796.28052"
     y="1348.1046"
     width="68.309219"
     height="81.390381"
     id="rect1147-9" /><rect
     x="1052.6619"
     y="510.63354"
     width="112.16301"
     height="112.1944"
     id="rect1159-2" /><rect
     x="1150.7977"
     y="1148.9662"
     width="75.67585"
     height="85.539467"
     id="rect1167-0" /><rect
     x="1344.9449"
     y="863.53088"
     width="83.134415"
     height="84.470146"
     id="rect1173-3" /><rect
     x="1812.9185"
     y="465.3772"
     width="81.325378"
     height="83.988815"
     id="rect1179-0" /><rect
     x="1316.4961"
     y="268.17004"
     width="121.73884"
     height="104.97501"
     id="rect1185-2" /><rect
     x="1441.6073"
     y="552.15918"
     width="90.805327"
     height="90.301861"
     id="rect1191-1" /></defs><sodipodi:namedview
   id="namedview927"
   pagecolor="#ffffff"
   bordercolor="#000000"
   borderopacity="0.25"
   inkscape:showpageshadow="2"
   inkscape:pageopacity="0.0"
   inkscape:pagecheckerboard="0"
   inkscape:deskcolor="#d1d1d1"
   showgrid="false"
   inkscape:zoom="0.31774363"
   inkscape:cx="2794.7059"
   inkscape:cy="862.33043"
   inkscape:window-width="1876"
   inkscape:window-height="991"
   inkscape:window-x="20"
   inkscape:window-y="67"
   inkscape:window-maximized="1"
   inkscape:current-layer="revolution-reflex-rx" />
	<style
   type="text/css"
   id="style867">
		.revolution-reflex .panel {
			stroke-width: 3px;
            fill: #FFFFFF;
		}
	</style>
	<path
   class="mesh"
   d="M232.5,152.5l-21,51l674-41c0,0,778-49,1489-49s1446,56,1446,56l738,60l-22-58l-722-58c0,0-744-50-1430-50  s-1436,34-1436,34L232.5,152.5z"
   id="path869" />
	<polygon
   class="panel"
   id="L1"
   points="133.5,309.5 196.5,188.5 738.5,1108.5 699.5,1374.5 " />
	<polygon
   class="panel"
   id="L2"
   points="201.5,215.5 737.5,1117.9 874.6,199.8 " />
	<path
   class="panel"
   id="L3"
   d="M289.5,206.5c0,0,1102.3-87.8,1651.6-87.8l-74.6,69.8L289.5,206.5z" />
	<polygon
   class="panel"
   id="L4"
   points="1003.7,199.8 930.5,1242.5 696.5,1373 867.1,200 " />
	<polygon
   class="panel"
   id="L5"
   points="780.5,1528.5 696.5,1368.9 930.9,1236.9 930.5,1437.5 " />
	<polygon
   class="panel"
   id="L6"
   points="998,199.8 1038,199.8 1324.5,634.5 945.5,955.5 " />
	<polygon
   class="panel"
   id="L7"
   points="923.7,1441.6 923.5,1243.5 2293.5,495.5 2380.5,545.5 " />
	<polygon
   class="panel"
   id="L8"
   points="1405.5,754.5 1519.5,924.5 923.5,1249.3 924.1,1240.7 " />
	<polygon
   class="panel"
   id="L9"
   points="1044.5,202.5 1328.5,632.5 1858,188.6 " />
	<polygon
   class="panel"
   id="L10"
   points="923.7,1246.3 945.5,947 1932.1,122.1 2044.5,122.5 " />
	<polygon
   class="panel"
   id="L11"
   points="1407.5,752.5 1519.5,925.5 2297.1,497.8 1895.5,263.5 " />
	<polygon
   class="center"
   id="center-panel"
   points="2035,122.5 2379.1,117.5 2730.5,122.5 2869.5,268.5 2381.5,550.5 1895.5,263.5 " />
	<polygon
   class="panel"
   id="R11"
   points="2465.7,501 2873.5,271.5 3353.5,761.5 3240.5,933.5 " />
	<polygon
   class="panel"
   id="R10"
   points="2723.7,122.5 3810.6,1256.5 3798.5,956.5 2831.5,123.5 " />
	<polygon
   class="panel"
   id="R9"
   points="3719.5,211.5 3431.5,646.5 2911.5,197.5 " />
	<polygon
   class="panel"
   id="R8"
   points="3244.5,936.5 3355.5,769.5 3811.5,1251.5 3810.5,1257.5 " />
	<polygon
   class="panel"
   id="R7"
   points="2379.5,546.5 2463.5,492.5 3810.5,1249.5 3815.5,1453.5 " />
	<polygon
   class="panel"
   id="R6"
   points="3723.5,211.5 3765.1,209.6 3798.8,962.6 3433.5,648.5 " />
	<polygon
   class="panel"
   id="R5"
   points="3805.5,1244.5 3810.5,1451.5 3967.5,1548.5 4060.5,1386.5 " />
	<polygon
   class="panel"
   id="R4"
   points="3806.1,1255 4057.1,1392.4 3891.5,213.5 3760.5,209.5 " />
	<path
   class="panel"
   id="R3"
   d="M4418.5,228.5c0,0-631-87-1590-105l71,65L4418.5,228.5z" />
	<polygon
   class="panel"
   id="R2"
   points="3887.7,213.4 4539.5,237.5 4016.5,1131.5 " />
	<polygon
   class="panel"
   id="R1"
   points="4545.5,216.5 4606.5,339.5 4055,1396 4015.4,1123.9 " />
	<g
   class="reinforcements"
   id="g910">
		<path
   fill="#000000"
   d="M145.9,332.9l94.6-170.4l641-54l-0.5,55.9l136.9-8.6l-2.4-52.3c0,0,694-32,1361-32s1440,52,1440,52l702,54   l80,177.3l121-209.3c0,0-567-59-906-80c0,0-547-46-1438-46s-1434,30-1434,30l-917,68L145.9,332.9z"
   id="path894" />
		<polygon
   fill="#000000"
   points="91,235.5 776.5,1538.5 2377.5,558.5 3136.5,128.5 3108.1,128.1 2380.5,539.5 782.5,1519.5   105.5,230.5  "
   id="polygon896" />
		<path
   fill="#000000"
   d="M200.9,195.9l746.6-45.4c0,0,699-43,1430-43s1446,54,1446,54l731.7,59.2l-3.7,18.8c0,0-511-44-732-62   c0,0-675.8-55-1440.4-55s-1432.6,43-1432.6,43l-745,50L200.9,195.9z"
   id="path898" />
		<polygon
   fill="#000000"
   points="1004,156 1585.7,1034.4 1595.6,1028.3 1017.5,155.5  "
   id="polygon900" />
		<polygon
   fill="#000000"
   points="4662.4,244.2 3968.5,1560.5 2381.7,556.1 1643,127 1674,126 2380.5,539.5 3964.5,1541.5 4646.5,238.5    "
   id="polygon902" />
		<polygon
   fill="#000000"
   points="3763.7,157.3 3174.5,1049.6 3162.8,1042.2 3751,156.4  "
   id="polygon904" />
		<polygon
   fill="#000000"
   points="2896.5,185.8 2914.3,199.9 4539.5,237.5 4533.9,227.5  "
   id="polygon906" />
		<polygon
   fill="#000000"
   points="1861.2,182.2 1844,196 201.5,215.5 223.5,206.5  "
   id="polygon908" />
	</g>
	<g
   class="logo"
   id="g912">
		<path
   d="M2562.1,151.1c-14.2,8-3.4,32.2,0.3,41.6c3.8,9.5,16.8,30.6,33.2,43l-30.1-7.7l-28.9-78l-18.5,0.4   c11.7,33,24.1,64,35,99c-2.4-0.7-27.8-7.8-27.9-7.9l-24.8-68.4l19.9-2.1l-12.2-21.1l-51.6,0.7l4,23.5l20.8-0.6   c9.5,24.5,22.6,60.6,29.6,84.9l-27.1-8l-36.6-99.6l-19.2,0.5c11.3,29.8,22.2,58.7,33.3,90.7c-7.2,1.6-13.9-0.3-20.4-3.3   c-12.2-15.2-12.4-27.2-17.5-49.9l-3.9-37.4l-20,0.5c0.6,20.4,4.1,78.5,38.2,115.7L2423,262c-0.1-0.1-2-12-2.1-12.9l-25,4.9   l-37.6-101.9l-18.5,0.4c7.1,20.2,14,40.5,21.4,60.6c3.1,8.4,15.8,39.8,25.9,75.8c-2.3-1-25.1-12-25.2-12.1l-0.4-11.2   c-6.3-59.3-24.4-93.6-39.5-105.1c-6.7-5.1-9.5-9.8-29-11.7c-10.3,1.4-16.6,4.6-18,8.8c-5.6,16.8-0.4,32.5,11,65.2   c12.1,34.6,40.8,73.7,40.8,73.7c-15-7.3-29.4-12.8-38.6-21.8c-1.6-1.5-4.7-12.2-5.1-14.6c-1-5.5-2.3-10.9-3.5-16.4l-20.2-91.5   l-20.1-0.2c0,0,25.9,108.5,25.9,108.5c-5-8-7.5-15.7-11.4-24c-3.8-8.2-7.9-16.5-11.6-24.8c-6.7-15-13-29.8-19.9-44.7l-6.9-14.9   l-20,0.5c0,0,48.2,105.3,54.9,120.2c7.6,16.8,14.3,29.2,21.4,50.2c-2.3-1.5-24.8-16.6-24.9-16.7c-0.1-0.1-3-14.7-3.2-15.9   l-27.8,7.5l-5.1-4.1l-10-29.8l22.7-4.7l-9.6-40.7c-8.8,0.9-16.9,1.8-25.8,2.9c-3.5-4.7-5.2-9.7-7.1-15.5c2.6-0.3,5.3-1.4,7.9-0.9   c0.2,0,9.8,4.2,10,4.3c-2-5.5-5.8-11.5-7.9-16.9l16.1-0.9c0,0-17.9-39.1-18.3-39.3c-15-0.6-29.5-0.2-44.5,0.2   c7.8,22.6,15.5,45.5,22.8,68.2c3.9,12.2,7.6,24.6,11.9,36.7c3.1,8.8,6,17.4,8.9,26.2c2.8,8.7,5.5,17.5,8,26.3   c3.6,12.3,7.7,22,10.1,36.1c-4.2-3.5-8.4-6.1-11.9-10.3c-6.1-7.4-12.8-21.7-17.8-30.6c-2.1-5.4-18.7-56.2-18.8-58.6   c-0.6-12.7-2.8-28-6.6-40c-12-36.4-20.6-40.5-21.2-42.1c-2-5.7-6.5-17.9-6.8-20.9l29.8,1.1l23.2,0.7l13.9,0.1l19.7,4.1l-0.4-3.8   l23.1-0.8l11.1,2.7l3-1.1l4.3-2.8l8.3-1.6l12.5,1l29.1,5.5l-0.5-4.6l17.8,0.5l35.2,4.8l0.1-6.2l19.2-0.5l5.5,1l56.2-1.2l44.8,0   l15.6,1.5l6.1-0.6l6-2.2l10.7-1.1l19.4,1.1l18,2l-0.2-1.5l14.6-0.7l5.5,1l5.3-0.6l11,1.9l-0.3-3.1l20.9,0.2l55.4,5.8l13.3,1.7   l-18.3,1.9l7.9,23.9l-30.3-24.6l-17,0.2l27.3,77.4l-22.9-4.6c2.6-19.6,1.2-33.2-2.7-42.4c-5.3-12.4-7.9-20.4-28-30.1   C2582.1,146.9,2576.1,147.4,2562.1,151.1z"
   id="path914" />
		<path
   d="M2581.9,190.3c-5.4-13.4-5.3-21.4,0.3-23.2c10.8-3.5,22.4,7.2,24.9,20.6c2.6,13.6,4.2,27.1-2.7,27.8   C2597.5,216.2,2587,202.9,2581.9,190.3z"
   id="path916" />
		<path
   d="M2307.6,222.7c-10.2-21.4-12.2-39.8-2.1-40.3c13.2-0.6,22.1,17,28.2,39.9c6.5,24.3,9.2,44.2,3.6,43.2   C2325.3,263.6,2319.4,247.5,2307.6,222.7z"
   id="path918" />
		<path
   d="M2098.7,151.4l-14.9,2.1l-9.1,1.7l9.5,46.9c1.7-0.2,18-1.9,18.3-1.9c0.2,0,9,4.8,9.8,5.2l-0.6-6.1l11.3-0.4   c8.9,10.2,9.2,16.4,10.4,25.6c1.2,9.1-1.5,33.3-2.4,41.5l59.8,115l-19.9-20.3l-28.2-55.7l-28-84.3l-1.6-14.8l-21.9,3.3   c5.5,17.4,22.8,69.6,25.6,78.4c2.8,8.7,5.8,17.4,8.5,26.1c5.8,19.2,11.4,38.5,17.5,57.6c-3.5-4.4-16.8-19.9-18.7-23.5   c-1.5-3-4.8-17.9-6.1-22.3c-5-17.2-10.2-34.3-15.5-51.4c-3-9.4-18.3-56.1-27.3-77.8l3.5-0.3l-8-5.4l-8.3-43.1l10.7-1.1l0.9,1.4   l9.8-0.8l0.9-1.1l12.2-1.3l19.2,6.5L2098.7,151.4z"
   id="path920" />
		<polygon
   points="2679.6,198.3 2651.1,175.8 2664.2,213 2686.3,217.7  "
   id="polygon922" />
		<path
   d="M2700.5,144.1c-0.1,0.2-0.2,0.3-0.4,0.5c-0.2,0.1-0.5,0.2-0.8,0.3c-0.3,0.1-0.7,0.1-1.1,0.2l-1.3,0.1l-0.2-2.3l1.6-0.2   c0.4,0,0.7-0.1,0.9-0.1c0.2,0,0.5,0,0.7,0.1c0.2,0.1,0.4,0.2,0.5,0.3c0.1,0.1,0.2,0.3,0.2,0.4   C2700.6,143.7,2700.6,143.9,2700.5,144.1z M2700.2,145.8c0.6-0.3,1.1-0.7,1.5-1.1c0.3-0.4,0.5-1,0.4-1.6c0-0.4-0.2-0.8-0.4-1.1   c-0.2-0.3-0.6-0.5-1-0.7c-0.4-0.2-0.8-0.2-1.2-0.3c-0.4,0-0.9,0-1.5,0.1l-3,0.3l0.9,8.4l1.5-0.2l-0.3-3.1l1.7-0.2l3.1,2.8l2.4-0.2   L2700.2,145.8z M2704.5,150c-1.3,1.6-2.9,2.5-4.9,2.7c-2,0.2-3.8-0.3-5.4-1.6c-1.6-1.3-2.4-2.9-2.7-4.9c-0.2-2,0.3-3.8,1.6-5.3   c1.3-1.6,2.9-2.5,4.9-2.7c2-0.2,3.8,0.3,5.4,1.6c1.6,1.3,2.4,2.9,2.7,4.9C2706.3,146.6,2705.8,148.4,2704.5,150z M2703.9,139.1   c-1.7-1.4-3.7-2-5.9-1.8c-2.2,0.2-4,1.2-5.4,2.9c-1.4,1.7-2,3.7-1.8,5.9c0.2,2.2,1.2,4,2.9,5.4c1.7,1.4,3.7,2,5.9,1.8   c2.2-0.2,4-1.2,5.4-2.9c1.4-1.7,2-3.7,1.8-5.9C2706.6,142.3,2705.7,140.5,2703.9,139.1z"
   id="path924" />
    </g>
	<text
   xml:space="preserve"
   id="text1071"
   style="font-size:42.6667px;white-space:pre;shape-inside:url(#rect1073);fill:#000000"
   transform="translate(46.267121,61.224904)"><tspan
     x="367.1875"
     y="669.1202"
     id="tspan1091">L1</tspan></text><text
   xml:space="preserve"
   id="text1071-6"
   style="font-size:42.6667px;white-space:pre;shape-inside:url(#rect1073-3);fill:#000000"
   transform="translate(3936.0477,65.506333)"><tspan
     x="367.1875"
     y="669.1202"
     id="tspan1093">R1</tspan></text><text
   xml:space="preserve"
   id="text1127"
   style="font-size:42.6667px;white-space:pre;shape-inside:url(#rect1129);fill:#000000"
   transform="translate(79.127056,-6.8479953)"><tspan
     x="1383.4375"
     y="184.81356"
     id="tspan1095">L3</tspan></text><text
   xml:space="preserve"
   id="text1127-5"
   style="font-size:42.6667px;white-space:pre;shape-inside:url(#rect1129-7);fill:#000000"
   transform="translate(1903.6007,-0.14434391)"><tspan
     x="1383.4375"
     y="184.81356"
     id="tspan1097">R3</tspan></text><text
   xml:space="preserve"
   id="text1133"
   style="font-size:42.6667px;white-space:pre;shape-inside:url(#rect1135);fill:#000000"
   transform="translate(34.750358,67.847254)"><tspan
     x="529.31445"
     y="391.0245"
     id="tspan1099">L2</tspan></text><text
   xml:space="preserve"
   id="text1133-5"
   style="font-size:42.6667px;white-space:pre;shape-inside:url(#rect1135-3);fill:#000000"
   transform="translate(3597.1473,82.400246)"><tspan
     x="529.31445"
     y="391.0245"
     id="tspan1101">R2</tspan></text><text
   xml:space="preserve"
   id="text1139"
   style="font-size:42.6667px;white-space:pre;shape-inside:url(#rect1141);fill:#000000"><tspan
     x="848.43945"
     y="747.22176"
     id="tspan1103">L4</tspan></text><text
   xml:space="preserve"
   id="text1139-2"
   style="font-size:42.6667px;white-space:pre;shape-inside:url(#rect1141-6);fill:#000000"
   transform="translate(3002.9594,21.947388)"><tspan
     x="848.43945"
     y="747.22176"
     id="tspan1105">R4</tspan></text><text
   xml:space="preserve"
   id="text1145"
   style="font-size:42.6667px;white-space:pre;shape-inside:url(#rect1147);fill:#000000"
   transform="translate(2.5694833,12.933242)"><tspan
     x="796.28125"
     y="1386.9268"
     id="tspan1107">L5</tspan></text><text
   xml:space="preserve"
   id="text1145-1"
   style="font-size:42.6667px;white-space:pre;shape-inside:url(#rect1147-9);fill:#000000"
   transform="translate(3084.623,23.25443)"><tspan
     x="796.28125"
     y="1386.9268"
     id="tspan1109">R5</tspan></text><text
   xml:space="preserve"
   id="text1151"
   style="fill:#000000;font-size:42.66666667px;white-space:pre;shape-inside:url(#rect1153)" /><text
   xml:space="preserve"
   id="text1157"
   style="font-size:42.6667px;white-space:pre;shape-inside:url(#rect1159);fill:#000000"
   transform="translate(22.327643,23.83009)"><tspan
     x="1052.6621"
     y="549.45418"
     id="tspan1111">L6</tspan></text><text
   xml:space="preserve"
   id="text1157-7"
   style="font-size:42.6667px;white-space:pre;shape-inside:url(#rect1159-2);fill:#000000"
   transform="translate(2570.8933,48.342638)"><tspan
     x="1052.6621"
     y="549.45418"
     id="tspan1113">R6</tspan></text><text
   xml:space="preserve"
   id="text1165"
   style="font-size:42.6667px;white-space:pre;shape-inside:url(#rect1167);fill:#000000"
   transform="translate(32.940453,0.35515505)"><tspan
     x="1150.7969"
     y="1187.7882"
     id="tspan1115">L7</tspan></text><text
   xml:space="preserve"
   id="text1165-9"
   style="font-size:42.6667px;white-space:pre;shape-inside:url(#rect1167-0);fill:#000000"
   transform="translate(2365.7632,3.7931248)"><tspan
     x="1150.7969"
     y="1187.7882"
     id="tspan1117">R7</tspan></text><text
   xml:space="preserve"
   id="text1171"
   style="font-size:42.6667px;white-space:pre;shape-inside:url(#rect1173);fill:#000000"><tspan
     x="1344.9453"
     y="902.35262"
     id="tspan1119">L8</tspan></text><text
   xml:space="preserve"
   id="text1171-6"
   style="font-size:42.6667px;white-space:pre;shape-inside:url(#rect1173-3);fill:#000000"
   transform="translate(2006.8545,20.90269)"><tspan
     x="1344.9453"
     y="902.35262"
     id="tspan1121">R8</tspan></text><text
   xml:space="preserve"
   id="text1177"
   style="font-size:42.6667px;white-space:pre;shape-inside:url(#rect1179);fill:#000000"
   transform="translate(29.799664,46.675005)"><tspan
     x="1812.918"
     y="504.19832"
     id="tspan1123">L11</tspan></text><text
   xml:space="preserve"
   id="text1177-6"
   style="font-size:42.6667px;white-space:pre;shape-inside:url(#rect1179-0);fill:#000000"
   transform="translate(1062.1796,44.811458)"><tspan
     x="1812.918"
     y="504.19832"
     id="tspan1125">R11</tspan></text><text
   xml:space="preserve"
   id="text1183"
   style="font-size:42.6667px;white-space:pre;shape-inside:url(#rect1185);fill:#000000"
   transform="translate(29.930417,57.073289)"><tspan
     x="1316.4961"
     y="306.99129"
     id="tspan1127">L9</tspan></text><text
   xml:space="preserve"
   id="text1183-6"
   style="font-size:42.6667px;white-space:pre;shape-inside:url(#rect1185-2);fill:#000000"
   transform="translate(1991.1969,65.382402)"><tspan
     x="1316.4961"
     y="306.99129"
     id="tspan1129">R9</tspan></text><text
   xml:space="preserve"
   id="text1189"
   style="font-size:42.6667px;white-space:pre;shape-inside:url(#rect1191);fill:#000000"
   transform="translate(58.749917,-44.513189)"><tspan
     x="1441.6074"
     y="590.98153"
     id="tspan1131">L10</tspan></text><text
   xml:space="preserve"
   id="text1189-8"
   style="font-size:42.6667px;white-space:pre;shape-inside:url(#rect1191-1);fill:#000000"
   transform="translate(1723.2731,-58.485023)"><tspan
     x="1441.6074"
     y="590.98153"
     id="tspan1133">R10</tspan></text></svg>
