<?xml version="1.0" encoding="UTF-8" standalone="no"?>
<svg
   class="revolution-reflex"
   version="1.1"
   id="revolution-reflex-tarantula"
   x="0px"
   y="0px"
   viewBox="0 0 8555 2951"
   style="enable-background:new 0 0 8555 2951;"
   xml:space="preserve"
   sodipodi:docname="tarantula.svg"
   inkscape:version="1.2.1 (9c6d41e410, 2022-07-14, custom)"
   xmlns:inkscape="http://www.inkscape.org/namespaces/inkscape"
   xmlns:sodipodi="http://sodipodi.sourceforge.net/DTD/sodipodi-0.dtd"
   xmlns="http://www.w3.org/2000/svg"
   xmlns:svg="http://www.w3.org/2000/svg"><defs
   id="defs107" /><sodipodi:namedview
   id="namedview105"
   pagecolor="#ffffff"
   bordercolor="#000000"
   borderopacity="0.25"
   inkscape:showpageshadow="2"
   inkscape:pageopacity="0.0"
   inkscape:pagecheckerboard="0"
   inkscape:deskcolor="#d1d1d1"
   showgrid="false"
   inkscape:zoom="0.29597451"
   inkscape:cx="5128.8201"
   inkscape:cy="773.71529"
   inkscape:window-width="1876"
   inkscape:window-height="991"
   inkscape:window-x="20"
   inkscape:window-y="67"
   inkscape:window-maximized="1"
   inkscape:current-layer="revolution-reflex-tarantula" />
    <style
   type="text/css"
   id="style2">
        .revolution-reflex .panel {
            stroke: #000000;
            stroke-width: 6px;
            fill: #ffffff;
        }
    </style>
    <path
   class="mesh"
   d="M269,492.7v44.5l446.8-5c0,0,536.1-112.6,1210.4-202c0,0,966.7-113.7,2428.9-113.7s2461.4,162.5,2461.4,162.5     s649.9,105.6,1129.1,195H8303v-32.5L6743.3,249c0,0-1023.5-154.3-2388.3-154.3S2031.8,200.2,2031.8,200.2S455.8,452.1,269,492.7z"
   id="path1634" />

    <polygon
   class="panel"
   id="L1"
   points="187.8,671.4 1276.3,2409.8 1471.3,1589.3 683.3,565.8 269,557.7 " />
    <text
   x="900"
   y="1300"
   text-anchor="middle"
   id="text1637">L1</text>

    <polygon
   class="panel"
   id="L2"
   points="1715,582 1467.4,1605.6 671.1,565.5 " />
    <text
   x="1300"
   y="900"
   text-anchor="middle"
   id="text1640">L2</text>

    <polygon
   class="panel"
   id="L3"
   points="2186.1,590.2 2072.4,2044.2 1333.2,2499.1 1268.5,2397.4 1702.8,581.8 " />
    <text
   x="1650"
   y="1480"
   text-anchor="middle"
   id="text1643">L3</text>

    <path
   class="panel"
   id="L4"
   d="M737.9,540.4L3120.3,582l533-338.1C3653.3,244,1682.5,280.5,737.9,540.4z" />
    <text
   x="2500"
   y="450"
   text-anchor="middle"
   id="text1646">L4</text>

    <path
   id="L5"
   class="panel"
   d="M 2487.0161,600.34062 2128.3,1178.3 2178,590 Z"
   sodipodi:nodetypes="cccc" />
    <text
   x="2300"
   y="783"
   text-anchor="middle"
   id="text1649">L5</text>

    <polygon
   class="panel"
   id="L6"
   points="2039.9,2596.6 2073.4,2031.8 1327.7,2490.5 1585,2889.1 " />
    <text
   x="1850"
   y="2500"
   text-anchor="middle"
   id="text1652">L6</text>

    <path
   id="L7"
   class="panel"
   d="M 3047.3706,1449.6836 3331.5,1743.7 l -1301,859 31.8,-564.1 z"
   sodipodi:nodetypes="ccccc" />
    <text
   x="2408.1106"
   y="2070.9468"
   text-anchor="middle"
   id="text1655">L7</text>

    <polygon
   class="panel"
   id="L8"
   points="4046.4,235.8 2061.6,2050.9 2131.4,1164.9 3634,245.3 " />
    <text
   x="2430"
   y="1380"
   text-anchor="middle"
   id="text1658">L8</text>

    <polygon
   class="panel"
   id="L10"
   points="4382,1076.6 4017.9,850.2 3076.9,1434.4 3353.9,1740.4 " />
    <text
   x="3885.1975"
   y="1148.8171"
   text-anchor="middle"
   id="text1664">L10</text>

    <path
   id="dividerL1"
   fill="#000000"
   d="m 3810.7029,1451.7341 21.9288,-18.3673 -1190.5565,-1156.61969 -32.5381,16.07107 z"
   sodipodi:nodetypes="ccccc" />
    
    <polygon
   class="center"
   fill="#FFFFFF"
   stroke="#000000"
   stroke-width="6"
   points="4033.1,237.1 3656.4,582 4388.5,1076.4 5126.8,582 4769.3,237.8 "
   id="polygon1666" />

    <polygon
   class="panel"
   id="R1"
   points="8319.2,623.8 7895.4,629.8 7204.2,1594.6 7354.5,2396.6 8376.1,712 " />
    <text
   x="7700"
   y="1300"
   text-anchor="middle"
   id="text1669">R1</text>

    <polygon
   class="panel"
   id="R2"
   points="7015.5,630.5 7900.9,630.9 7206.3,1605.6 " />
    <text
   x="7350"
   y="1000"
   text-anchor="middle"
   id="text1672">R2</text>

    <polygon
   class="panel"
   id="R3"
   points="6572.7,622.6 7027.6,630.8 7360.7,2385.4 7320.1,2458.5 6625.1,2024.1 " />
    <text
   x="7035"
   y="1500"
   text-anchor="middle"
   id="text1675">R3</text>

    <path
   class="panel"
   id="R4"
   d="M5155.5,252.7c0,0,1449.7,28.8,2798.2,345.6l-32.5,24.4L5671,608.4L5155.5,252.7z" />
    <text
   x="6202"
   y="474"
   text-anchor="middle"
   id="text1678">R4</text>

    <path
   id="R5"
   class="panel"
   d="M 6604.7,1215.1 6589,622.9 6200.6481,621.61314 Z"
   sodipodi:nodetypes="cccc" />
    <text
   x="6450"
   y="790"
   text-anchor="middle"
   id="text1681">R5</text>

    <polygon
   class="panel"
   id="R6"
   points="7324.8,2450 7060.1,2872.8 6627.6,2578.1 6624.7,2011.7 " />
    <text
   x="6800"
   y="2480"
   text-anchor="middle"
   id="text1684">R6</text>

    <path
   id="R7"
   class="panel"
   d="m 5409.2,1752.7 1222.5,830.2 1,-565 -959.2083,-578.2588 z"
   sodipodi:nodetypes="ccccc" />
    <text
   x="6372.1079"
   y="2074.7249"
   text-anchor="middle"
   id="text1687">R7</text>

    <polygon
   class="panel"
   id="R8"
   points="4757.2,238.9 5165.4,253.1 6605.3,1206.5 6637.7,2036.1 " />
    <text
   x="6300"
   y="1350"
   text-anchor="middle"
   id="text1690">R8</text>

    <polygon
   class="panel"
   id="R10"
   points="4400,1075.6 4736,854.4 5669.3,1435.4 5397,1742.4 " />
    <text
   x="4799.0308"
   y="1134.7549"
   text-anchor="middle"
   id="text1696">R10</text>

    <path
   id="dividerR1"
   fill="#000000"
   d="M 6075.8006,315.69544 4950.1852,1451.0537 4933.2346,1428.6859 6051.9799,300.13847 Z"
   sodipodi:nodetypes="ccccc" />
    
    <g
   id="g88">
        <path
   fill="#000000"
   d="M179.7,703.9c0,0,113.7-89.4,97.5-211.2c0,0,1064.2-178.7,1649-259.9v89.4l219.3-16.2v-97.5         c0,0,934.2-97.5,2242-97.5s2250.2,146.2,2250.2,146.2v97.5l178.7,24.4v-97.5c0,0,731.1,121.8,1470.3,268.1         c0,0,16.2,121.9,97.5,186.8l138.1-227.5c0,0-844.8-186.8-1827.8-341.2c0,0-1218.5-146.2-2315.1-146.2S2031.8,119,2031.8,119         S813.3,314,25.3,435.8L179.7,703.9z"
   id="path68" />
        <path
   fill="#000000"
   d="M168.3,684.2l1400.4,2245.5l2818.8-1835.9c0,0,938.2-604.1,1222.5-823.5l-60.9-5.1         c0,0-347.7,281.3-1161.6,796.1L1585,2872.8L200,654.2L168.3,684.2z"
   id="path70" />
        <path
   fill="#000000"
   d="M269,527.2l442.5-8.7c0,0,840.3-162.7,1214.7-202.8c0,0,792.3-113.2,2429.3-113.2s2479,162,2479,162         s740,131,1099,199H8303l16.5,67l-428,8l36-38c0,0-1344.9-359.5-3572.5-359.5S815.5,525.5,815.5,525.5l21,48l-573.1-8L269,527.2z"
   id="path72" />
        <polygon
   fill="#000000"
   points="749.3,573.9 3675.7,618.8 3637.7,582.9 762.2,534.8  "
   id="polygon74" />
        <polygon
   fill="#000000"
   points="2020.9,337.5 1596.5,2897.5 1560.5,2889.5 1973.5,337.5  "
   id="polygon76" />
        <path
   fill="#000000"
   d="m 3331.5,1754.5 c 0,0 -667.3,-709.5 -1255.1,-1420.2 l 50.9,-6.7 c 0,0 446.2,546 1235.2,1411 z m -482.3704,328.5591 c 0,0 -22.6242,-49.0786 -377.9124,-424.7556 l 32.0854,-11.4621 377.2897,413.8627 z"
   id="path78"
   sodipodi:nodetypes="cccccccccc" />
        <path
   fill="#000000"
   d="M3160.2,260.9c0,0,341.3,279.6,1231.3,832.6l2667,1809L8396.1,716.8l-25.9-13.2L7054.5,2858.6l-2663-1810.1         c0,0-710.9-423.3-1168.5-790.7L3160.2,260.9z"
   id="path80" />
        <polygon
   fill="#000000"
   points="7931.5,614.9 5126.8,601 5082.4,630.5 7931.5,637.8  "
   id="polygon82" />
        <polygon
   fill="#000000"
   points="6716.6,378.9 7041.5,2872.5 7071.5,2872.5 6765.4,385.3  "
   id="polygon84" />
        <polygon
   fill="#000000"
   points="6660,371.7 5418,1758.6 5383,1733.1 6613.7,366  "
   id="polygon86" /><path
   id="polygon86-3"
   transform="translate(-355.10958,1307.3518)"
   d="m 6613.7,366 46.3,5.7 -379.86,414.46543 -26.8865,-20.14845 z"
   sodipodi:nodetypes="ccccc" />
    </g>
    <g
   class="logo"
   id="g102">
        <path
   d="M4650.6,443.3c-21.1,8.9-9.9,44.3-6.3,57.9c3.7,13.9,18.5,45.3,39.2,65.2l-40.7-15.6l-27.7-113.3l-25.8-2.5         c10.9,47.9,23.2,93,32.7,143.5c-3.2-1.3-37.4-15.4-37.5-15.5l-23.5-99.3l28,0.3l-13.6-31.4l-72-7.3l1.7,33.4l29,2.5         c9.2,35.6,21.7,88,27.5,123l-36.4-15.5l-34.8-144.6l-26.9-2.5c10.9,43.3,21.4,85.3,31.7,131.7c-10.2,1.1-19.3-2.7-27.9-7.9         c-14.5-23.2-12.8-39.8-16.3-72.3l0.7-52.7l-27.9-2.5c-2.5,28.5-7,109.9,34.5,167.2l-19.2-9.9c-0.1-0.1-0.8-17-0.8-18.3l-35.5,2.8         l-35.8-147.9l-25.8-2.5c6.7,29.2,12.9,58.6,20,87.8c3,12.2,15.5,57.9,23.8,109.7c-3-1.8-33-20.7-33.1-20.9l1.3-15.6         c0.9-83.6-18.8-134.2-37.9-152.7c-8.5-8.2-11.7-15.2-38.5-20.9c-14.5,0.4-23.8,3.7-26.5,9.4c-10.5,22.5-5.8,45.1,4.8,92.6         c11.2,50.2,44.9,109.2,44.9,109.2c-19.7-12.6-38.8-22.5-50.2-36.6c-1.9-2.4-4.6-17.8-4.8-21.1c-0.5-7.8-1.4-15.6-2.2-23.4         l-13.4-130.7l-27.9-3.6c0,0,18.5,155.2,18.5,155.2c-5.7-11.9-7.9-23-12-35.3c-4-12-8.3-24.3-12.1-36.3         c-6.8-21.9-13.3-43.6-20.5-65.4l-7.2-21.8l-27.9-2.5c0,0,50,154.4,57,176.2c7.9,24.6,15.2,43,21.7,73.4         c-2.9-2.4-31.8-27.1-31.9-27.3c-0.1-0.2-1.7-21-1.9-22.6l-39.9,6l-6.4-6.5l-9.1-43.2l32.3-2.8l-6.8-58.2         c-12.5-0.2-23.9-0.2-36.3-0.2c-4.1-7.1-5.7-14.3-7.3-22.7c3.7,0,7.6-1.1,11.2,0c0.3,0.1,12.9,7.4,13.2,7.6         c-1.9-7.9-6.2-17-8.2-24.9l22.6,1.4c0,0-18.7-57.3-19.2-57.6c-20.8-3.3-41-5.1-62-7c7.2,32.7,14.3,65.8,20.8,98.7         c3.5,17.7,6.7,35.5,10.7,53.1c2.9,12.7,5.6,25.1,8.1,37.9c2.5,12.5,4.8,25.3,6.9,37.9c3,17.7,7.1,31.9,8.3,52         c-5.3-5.6-10.6-9.8-14.9-16.3c-7.4-11.3-14.4-32.3-19.9-45.4c-2.1-7.8-16.9-81.3-16.7-84.7c1.2-17.8,0.6-39.4-2.8-56.7         c-10.7-52.7-22.1-59.7-22.7-62c-1.9-8.3-6.1-25.9-6.1-30.2l41.3,6.4l32.2,4.7l19.3,2.4l26.8,8.9l0.1-5.4l32.3,2.6l15,5.6l4.3-1         l6.5-3.2l11.8-0.9l17.2,3.4l39.7,12.3l0.1-6.5l24.7,3.5l48.3,12.4l1.2-8.6l26.9,2.5l7.5,2.2l78.5,7.4l62.3,7.2l21.5,4.6l8.6,0.1         l8.6-2l15.1,0.2l26.8,4.6l24.7,5.7l0-2.2l20.4,1.3l7.5,2.2l7.5,0.1l15,4.5l0.1-4.3l29,3.6l76.2,17.1l18.2,4.5l-25.8-0.3l7.1,34.5         l-38.3-39.2l-23.6-2.4l25.5,112.2L4730,553c6.8-26.8,7.1-46,3.2-59.4c-5.3-18.2-7.7-29.7-34.1-46.4         C4679.2,440.7,4670.8,440.5,4650.6,443.3z"
   id="path90" />
        <path
   d="M4672,501.2c-5.4-19.6-3.9-30.6,4.2-32.2c15.6-3.2,30,13.7,31.3,32.7c1.4,19.4,1.5,38.4-8.3,38.2         C4689.4,539.7,4677,519.5,4672,501.2z"
   id="path92" />
        <path
   d="M4284.7,501.9c-10.8-31.5-10.6-57.5,3.6-56.5c18.5,1.3,28,27.2,32.8,60.1c5.1,34.9,5.7,63-2,60.8         C4302.8,561.6,4297.2,538.3,4284.7,501.9z"
   id="path94" />
        <path
   d="M4005.5,368.9l-21.1,0.5l-12.9,0.9l5.6,66.8c2.3,0,25.4,0.2,25.8,0.3c0.2,0.1,11.8,8.1,12.8,8.8l0.1-8.6         l15.8,1.3c10.7,15.7,10.1,24.3,10.3,37.3c0.1,12.8-7.4,46.1-10,57.3l64.6,169.8l-24.4-31.5l-30.2-82.2l-25.4-121.9l0.1-20.9         l-31.1,1.1c4.9,25.2,20.5,100.6,23,113.3c2.4,12.5,5.3,25.2,7.5,37.8c5,27.7,9.6,55.4,15,83c-4.2-6.7-20.1-30.4-22.2-35.8         c-1.6-4.4-3.8-25.7-4.8-32.1c-4.1-24.8-8.6-49.4-13.3-74.1c-2.7-13.6-16.4-81.1-25.4-112.8l5,0.2l-10.3-8.9l-4.6-61.4l15.1,0.2         l1,2.2l13.7,0.4l1.4-1.3l17.2,0.2l25.7,12.2L4005.5,368.9z"
   id="path96" />
    <polygon
   points="4806.7,528.1 4770.6,492.2 4782.8,546.1 4812.8,556.2  "
   id="polygon98" />
    <path
   d="M4844.5,456c-0.1,0.2-0.3,0.4-0.7,0.6c-0.3,0.2-0.7,0.3-1.1,0.3c-0.4,0.1-1,0.1-1.6,0.1l-1.9,0l0-3.2l2.2,0         c0.5,0,1,0,1.3,0.1s0.7,0.1,1,0.2c0.3,0.1,0.5,0.3,0.7,0.5c0.1,0.2,0.2,0.4,0.2,0.7C4844.7,455.5,4844.7,455.8,4844.5,456z          M4843.8,458.4c1-0.3,1.7-0.8,2.3-1.3c0.5-0.5,0.8-1.3,0.8-2.1c0-0.6-0.1-1.2-0.4-1.6c-0.3-0.4-0.7-0.8-1.3-1.1         c-0.5-0.3-1.1-0.5-1.6-0.5c-0.5-0.1-1.3-0.1-2.1-0.1l-4.2-0.1l-0.1,11.8l2.2,0l0.1-4.3l2.4,0l3.9,4.4l3.4,0L4843.8,458.4z          M4849.2,464.8c-2,2-4.4,3-7.3,2.9c-2.8,0-5.2-1.1-7.2-3.1c-2-2-2.9-4.4-2.9-7.2c0-2.8,1.1-5.2,3.1-7.2c2-2,4.4-3,7.3-2.9         c2.8,0,5.2,1.1,7.2,3.1c2,2,2.9,4.5,2.9,7.2C4852.2,460.5,4851.2,462.8,4849.2,464.8z M4850.1,449.6c-2.2-2.2-4.8-3.4-7.9-3.4         c-3.1,0-5.8,1-8,3.2c-2.2,2.2-3.4,4.8-3.4,7.9c0,3.1,1,5.8,3.2,8c2.2,2.2,4.8,3.4,7.9,3.4c3.1,0,5.8-1,8-3.2         c2.2-2.2,3.4-4.8,3.4-7.9C4853.3,454.6,4852.3,451.9,4850.1,449.6z"
   id="path100" />
</g>
</svg>
